<svg xmlns="http://www.w3.org/2000/svg" xmlns:xlink="http://www.w3.org/1999/xlink" width="633" zoomAndPan="magnify" viewBox="0 0 474.75 330.749987" height="441" preserveAspectRatio="xMidYMid meet" version="1.0"><defs><g/><clipPath id="9fe8f4d281"><path d="M 0.0546875 36.097656 L 462.324219 36.097656 L 462.324219 330.480469 L 0.0546875 330.480469 Z M 0.0546875 36.097656 " clip-rule="nonzero"/></clipPath><clipPath id="4a121cbde4"><path d="M 9.046875 36.097656 L 453.308594 36.097656 C 455.695312 36.097656 457.980469 37.046875 459.667969 38.734375 C 461.355469 40.417969 462.300781 42.707031 462.300781 45.09375 L 462.300781 321.488281 C 462.300781 323.871094 461.355469 326.160156 459.667969 327.847656 C 457.980469 329.535156 455.695312 330.480469 453.308594 330.480469 L 9.046875 330.480469 C 6.664062 330.480469 4.375 329.535156 2.6875 327.847656 C 1 326.160156 0.0546875 323.871094 0.0546875 321.488281 L 0.0546875 45.09375 C 0.0546875 42.707031 1 40.417969 2.6875 38.734375 C 4.375 37.046875 6.664062 36.097656 9.046875 36.097656 Z M 9.046875 36.097656 " clip-rule="nonzero"/></clipPath><clipPath id="004df3c034"><path d="M 396.589844 0 L 462.320312 0 L 462.320312 24.457031 L 396.589844 24.457031 Z M 396.589844 0 " clip-rule="nonzero"/></clipPath><clipPath id="e03ff46e38"><path d="M 402.585938 0 L 456.308594 0 C 457.898438 0 459.421875 0.632812 460.546875 1.757812 C 461.671875 2.878906 462.300781 4.40625 462.300781 5.996094 L 462.300781 18.460938 C 462.300781 20.050781 461.671875 21.578125 460.546875 22.703125 C 459.421875 23.824219 457.898438 24.457031 456.308594 24.457031 L 402.585938 24.457031 C 400.996094 24.457031 399.472656 23.824219 398.347656 22.703125 C 397.222656 21.578125 396.589844 20.050781 396.589844 18.460938 L 396.589844 5.996094 C 396.589844 4.40625 397.222656 2.878906 398.347656 1.757812 C 399.472656 0.632812 400.996094 0 402.585938 0 Z M 402.585938 0 " clip-rule="nonzero"/></clipPath><clipPath id="4a33a84803"><path d="M 405.46875 9.953125 L 414.464844 9.953125 L 414.464844 15 L 405.46875 15 Z M 405.46875 9.953125 " clip-rule="nonzero"/></clipPath></defs><g clip-path="url(#9fe8f4d281)"><g clip-path="url(#4a121cbde4)"><path fill="#fffafa" d="M 0.0546875 36.097656 L 462.324219 36.097656 L 462.324219 330.480469 L 0.0546875 330.480469 Z M 0.0546875 36.097656 " fill-opacity="1" fill-rule="nonzero"/></g></g><g fill="#000000" fill-opacity="1"><g transform="translate(48.074264, 311.608114)"><g><path d="M 2.9375 -5.8125 L 3.640625 -5.8125 L 3.640625 -1.65625 C 3.640625 -1.101562 3.488281 -0.675781 3.1875 -0.375 C 2.882812 -0.0703125 2.484375 0.078125 1.984375 0.078125 C 1.660156 0.078125 1.375 0.0195312 1.125 -0.09375 C 0.875 -0.207031 0.675781 -0.375 0.53125 -0.59375 C 0.394531 -0.8125 0.328125 -1.066406 0.328125 -1.359375 L 1.015625 -1.359375 C 1.015625 -1.117188 1.101562 -0.921875 1.28125 -0.765625 C 1.46875 -0.617188 1.703125 -0.546875 1.984375 -0.546875 C 2.285156 -0.546875 2.519531 -0.640625 2.6875 -0.828125 C 2.851562 -1.015625 2.9375 -1.289062 2.9375 -1.65625 Z M 2.9375 -5.8125 "/></g></g></g><g fill="#000000" fill-opacity="1"><g transform="translate(52.406368, 311.608114)"><g><path d="M 1.890625 0.109375 C 1.617188 0.109375 1.367188 0.0546875 1.140625 -0.046875 C 0.921875 -0.160156 0.742188 -0.316406 0.609375 -0.515625 C 0.472656 -0.710938 0.40625 -0.953125 0.40625 -1.234375 C 0.40625 -1.484375 0.453125 -1.6875 0.546875 -1.84375 C 0.648438 -2 0.785156 -2.117188 0.953125 -2.203125 C 1.117188 -2.296875 1.300781 -2.363281 1.5 -2.40625 C 1.695312 -2.457031 1.898438 -2.492188 2.109375 -2.515625 C 2.367188 -2.554688 2.582031 -2.582031 2.75 -2.59375 C 2.914062 -2.613281 3.035156 -2.644531 3.109375 -2.6875 C 3.191406 -2.738281 3.234375 -2.816406 3.234375 -2.921875 L 3.234375 -2.9375 C 3.234375 -3.21875 3.15625 -3.4375 3 -3.59375 C 2.84375 -3.75 2.613281 -3.828125 2.3125 -3.828125 C 1.988281 -3.828125 1.734375 -3.753906 1.546875 -3.609375 C 1.367188 -3.472656 1.242188 -3.328125 1.171875 -3.171875 L 0.53125 -3.390625 C 0.644531 -3.660156 0.796875 -3.867188 0.984375 -4.015625 C 1.179688 -4.160156 1.390625 -4.265625 1.609375 -4.328125 C 1.835938 -4.390625 2.0625 -4.421875 2.28125 -4.421875 C 2.425781 -4.421875 2.585938 -4.40625 2.765625 -4.375 C 2.953125 -4.34375 3.128906 -4.273438 3.296875 -4.171875 C 3.472656 -4.066406 3.613281 -3.910156 3.71875 -3.703125 C 3.832031 -3.492188 3.890625 -3.21875 3.890625 -2.875 L 3.890625 0 L 3.234375 0 L 3.234375 -0.59375 L 3.1875 -0.59375 C 3.144531 -0.5 3.070312 -0.394531 2.96875 -0.28125 C 2.863281 -0.175781 2.722656 -0.0820312 2.546875 0 C 2.367188 0.0703125 2.148438 0.109375 1.890625 0.109375 Z M 2 -0.5 C 2.257812 -0.5 2.484375 -0.550781 2.671875 -0.65625 C 2.859375 -0.757812 3 -0.894531 3.09375 -1.0625 C 3.1875 -1.226562 3.234375 -1.398438 3.234375 -1.578125 L 3.234375 -2.1875 C 3.203125 -2.15625 3.132812 -2.125 3.03125 -2.09375 C 2.9375 -2.070312 2.828125 -2.050781 2.703125 -2.03125 C 2.585938 -2.007812 2.46875 -1.988281 2.34375 -1.96875 C 2.226562 -1.957031 2.132812 -1.945312 2.0625 -1.9375 C 1.894531 -1.914062 1.734375 -1.878906 1.578125 -1.828125 C 1.429688 -1.785156 1.3125 -1.710938 1.21875 -1.609375 C 1.125 -1.503906 1.078125 -1.367188 1.078125 -1.203125 C 1.078125 -0.972656 1.160156 -0.796875 1.328125 -0.671875 C 1.503906 -0.554688 1.726562 -0.5 2 -0.5 Z M 2 -0.5 "/></g></g></g><g fill="#000000" fill-opacity="1"><g transform="translate(56.908575, 311.608114)"><g><path d="M 1.28125 -2.625 L 1.28125 0 L 0.609375 0 L 0.609375 -4.359375 L 1.265625 -4.359375 L 1.265625 -3.6875 L 1.3125 -3.6875 C 1.414062 -3.90625 1.570312 -4.082031 1.78125 -4.21875 C 1.988281 -4.351562 2.257812 -4.421875 2.59375 -4.421875 C 3.03125 -4.421875 3.382812 -4.285156 3.65625 -4.015625 C 3.925781 -3.742188 4.0625 -3.328125 4.0625 -2.765625 L 4.0625 0 L 3.390625 0 L 3.390625 -2.734375 C 3.390625 -3.066406 3.300781 -3.328125 3.125 -3.515625 C 2.945312 -3.710938 2.703125 -3.8125 2.390625 -3.8125 C 2.078125 -3.8125 1.8125 -3.707031 1.59375 -3.5 C 1.382812 -3.300781 1.28125 -3.007812 1.28125 -2.625 Z M 1.28125 -2.625 "/></g></g></g><g fill="#000000" fill-opacity="1"><g transform="translate(81.870448, 311.608114)"><g><path d="M 0.703125 0 L 0.703125 -5.8125 L 4.1875 -5.8125 L 4.1875 -5.1875 L 1.40625 -5.1875 L 1.40625 -3.234375 L 3.9375 -3.234375 L 3.9375 -2.609375 L 1.40625 -2.609375 L 1.40625 0 Z M 0.703125 0 "/></g></g></g><g fill="#000000" fill-opacity="1"><g transform="translate(86.236216, 311.608114)"><g><path d="M 2.4375 0.09375 C 2.019531 0.09375 1.660156 0 1.359375 -0.1875 C 1.054688 -0.375 0.820312 -0.632812 0.65625 -0.96875 C 0.488281 -1.3125 0.40625 -1.703125 0.40625 -2.140625 C 0.40625 -2.585938 0.488281 -2.984375 0.65625 -3.328125 C 0.820312 -3.671875 1.050781 -3.9375 1.34375 -4.125 C 1.632812 -4.320312 1.976562 -4.421875 2.375 -4.421875 C 2.601562 -4.421875 2.828125 -4.378906 3.046875 -4.296875 C 3.265625 -4.222656 3.460938 -4.101562 3.640625 -3.9375 C 3.828125 -3.769531 3.972656 -3.546875 4.078125 -3.265625 C 4.191406 -2.984375 4.25 -2.640625 4.25 -2.234375 L 4.25 -1.953125 L 1.078125 -1.953125 C 1.097656 -1.484375 1.234375 -1.125 1.484375 -0.875 C 1.734375 -0.632812 2.050781 -0.515625 2.4375 -0.515625 C 2.707031 -0.515625 2.9375 -0.570312 3.125 -0.6875 C 3.3125 -0.800781 3.445312 -0.96875 3.53125 -1.1875 L 4.1875 -1.015625 C 4.082031 -0.679688 3.875 -0.410156 3.5625 -0.203125 C 3.257812 -0.00390625 2.882812 0.09375 2.4375 0.09375 Z M 1.078125 -2.53125 L 3.5625 -2.53125 C 3.5625 -2.90625 3.453125 -3.210938 3.234375 -3.453125 C 3.023438 -3.691406 2.738281 -3.8125 2.375 -3.8125 C 2.113281 -3.8125 1.890625 -3.75 1.703125 -3.625 C 1.515625 -3.507812 1.367188 -3.351562 1.265625 -3.15625 C 1.160156 -2.96875 1.097656 -2.757812 1.078125 -2.53125 Z M 1.078125 -2.53125 "/></g></g></g><g fill="#000000" fill-opacity="1"><g transform="translate(90.88586, 311.608114)"><g><path d="M 0.703125 0 L 0.703125 -5.8125 L 1.375 -5.8125 L 1.375 -3.671875 L 1.4375 -3.671875 C 1.476562 -3.742188 1.539062 -3.835938 1.625 -3.953125 C 1.71875 -4.078125 1.847656 -4.1875 2.015625 -4.28125 C 2.179688 -4.375 2.40625 -4.421875 2.6875 -4.421875 C 3.0625 -4.421875 3.382812 -4.328125 3.65625 -4.140625 C 3.9375 -3.960938 4.15625 -3.703125 4.3125 -3.359375 C 4.476562 -3.023438 4.5625 -2.628906 4.5625 -2.171875 C 4.5625 -1.710938 4.476562 -1.3125 4.3125 -0.96875 C 4.15625 -0.632812 3.9375 -0.375 3.65625 -0.1875 C 3.382812 0 3.066406 0.09375 2.703125 0.09375 C 2.421875 0.09375 2.195312 0.046875 2.03125 -0.046875 C 1.863281 -0.140625 1.734375 -0.242188 1.640625 -0.359375 C 1.546875 -0.484375 1.476562 -0.585938 1.4375 -0.671875 L 1.359375 -0.671875 L 1.359375 0 Z M 1.359375 -2.1875 C 1.359375 -1.6875 1.46875 -1.28125 1.6875 -0.96875 C 1.90625 -0.664062 2.210938 -0.515625 2.609375 -0.515625 C 2.890625 -0.515625 3.125 -0.585938 3.3125 -0.734375 C 3.5 -0.878906 3.640625 -1.078125 3.734375 -1.328125 C 3.835938 -1.585938 3.890625 -1.875 3.890625 -2.1875 C 3.890625 -2.488281 3.84375 -2.765625 3.75 -3.015625 C 3.65625 -3.265625 3.515625 -3.457031 3.328125 -3.59375 C 3.140625 -3.738281 2.898438 -3.8125 2.609375 -3.8125 C 2.203125 -3.8125 1.890625 -3.660156 1.671875 -3.359375 C 1.460938 -3.066406 1.359375 -2.675781 1.359375 -2.1875 Z M 1.359375 -2.1875 "/></g></g></g><g fill="#000000" fill-opacity="1"><g transform="translate(115.452788, 311.608114)"><g><path d="M 0.703125 -5.8125 L 1.546875 -5.8125 L 3.515625 -0.984375 L 3.59375 -0.984375 L 5.5625 -5.8125 L 6.40625 -5.8125 L 6.40625 0 L 5.75 0 L 5.75 -4.421875 L 5.6875 -4.421875 L 3.875 0 L 3.234375 0 L 1.421875 -4.421875 L 1.359375 -4.421875 L 1.359375 0 L 0.703125 0 Z M 0.703125 -5.8125 "/></g></g></g><g fill="#000000" fill-opacity="1"><g transform="translate(122.73344, 311.608114)"><g><path d="M 1.890625 0.109375 C 1.617188 0.109375 1.367188 0.0546875 1.140625 -0.046875 C 0.921875 -0.160156 0.742188 -0.316406 0.609375 -0.515625 C 0.472656 -0.710938 0.40625 -0.953125 0.40625 -1.234375 C 0.40625 -1.484375 0.453125 -1.6875 0.546875 -1.84375 C 0.648438 -2 0.785156 -2.117188 0.953125 -2.203125 C 1.117188 -2.296875 1.300781 -2.363281 1.5 -2.40625 C 1.695312 -2.457031 1.898438 -2.492188 2.109375 -2.515625 C 2.367188 -2.554688 2.582031 -2.582031 2.75 -2.59375 C 2.914062 -2.613281 3.035156 -2.644531 3.109375 -2.6875 C 3.191406 -2.738281 3.234375 -2.816406 3.234375 -2.921875 L 3.234375 -2.9375 C 3.234375 -3.21875 3.15625 -3.4375 3 -3.59375 C 2.84375 -3.75 2.613281 -3.828125 2.3125 -3.828125 C 1.988281 -3.828125 1.734375 -3.753906 1.546875 -3.609375 C 1.367188 -3.472656 1.242188 -3.328125 1.171875 -3.171875 L 0.53125 -3.390625 C 0.644531 -3.660156 0.796875 -3.867188 0.984375 -4.015625 C 1.179688 -4.160156 1.390625 -4.265625 1.609375 -4.328125 C 1.835938 -4.390625 2.0625 -4.421875 2.28125 -4.421875 C 2.425781 -4.421875 2.585938 -4.40625 2.765625 -4.375 C 2.953125 -4.34375 3.128906 -4.273438 3.296875 -4.171875 C 3.472656 -4.066406 3.613281 -3.910156 3.71875 -3.703125 C 3.832031 -3.492188 3.890625 -3.21875 3.890625 -2.875 L 3.890625 0 L 3.234375 0 L 3.234375 -0.59375 L 3.1875 -0.59375 C 3.144531 -0.5 3.070312 -0.394531 2.96875 -0.28125 C 2.863281 -0.175781 2.722656 -0.0820312 2.546875 0 C 2.367188 0.0703125 2.148438 0.109375 1.890625 0.109375 Z M 2 -0.5 C 2.257812 -0.5 2.484375 -0.550781 2.671875 -0.65625 C 2.859375 -0.757812 3 -0.894531 3.09375 -1.0625 C 3.1875 -1.226562 3.234375 -1.398438 3.234375 -1.578125 L 3.234375 -2.1875 C 3.203125 -2.15625 3.132812 -2.125 3.03125 -2.09375 C 2.9375 -2.070312 2.828125 -2.050781 2.703125 -2.03125 C 2.585938 -2.007812 2.46875 -1.988281 2.34375 -1.96875 C 2.226562 -1.957031 2.132812 -1.945312 2.0625 -1.9375 C 1.894531 -1.914062 1.734375 -1.878906 1.578125 -1.828125 C 1.429688 -1.785156 1.3125 -1.710938 1.21875 -1.609375 C 1.125 -1.503906 1.078125 -1.367188 1.078125 -1.203125 C 1.078125 -0.972656 1.160156 -0.796875 1.328125 -0.671875 C 1.503906 -0.554688 1.726562 -0.5 2 -0.5 Z M 2 -0.5 "/></g></g></g><g fill="#000000" fill-opacity="1"><g transform="translate(127.235647, 311.608114)"><g><path d="M 0.609375 0 L 0.609375 -4.359375 L 1.265625 -4.359375 L 1.265625 -3.703125 L 1.3125 -3.703125 C 1.382812 -3.921875 1.523438 -4.097656 1.734375 -4.234375 C 1.941406 -4.367188 2.175781 -4.4375 2.4375 -4.4375 C 2.5625 -4.4375 2.664062 -4.421875 2.75 -4.390625 C 2.84375 -4.359375 2.925781 -4.316406 3 -4.265625 L 2.765625 -3.703125 C 2.722656 -3.722656 2.671875 -3.738281 2.609375 -3.75 C 2.546875 -3.769531 2.472656 -3.78125 2.390625 -3.78125 C 2.066406 -3.78125 1.800781 -3.679688 1.59375 -3.484375 C 1.382812 -3.296875 1.28125 -3.054688 1.28125 -2.765625 L 1.28125 0 Z M 0.609375 0 "/></g></g></g><g fill="#000000" fill-opacity="1"><g transform="translate(150.24693, 311.608114)"><g><path d="M 0.9375 0 L 0.203125 0 L 2.34375 -5.8125 L 3.0625 -5.8125 L 5.203125 0 L 4.46875 0 L 3.875 -1.640625 L 1.53125 -1.640625 Z M 1.75 -2.265625 L 3.65625 -2.265625 L 2.734375 -4.890625 L 2.6875 -4.890625 Z M 1.75 -2.265625 "/></g></g></g><g fill="#000000" fill-opacity="1"><g transform="translate(155.64505, 311.608114)"><g><path d="M 0.609375 1.640625 L 0.609375 -4.359375 L 1.265625 -4.359375 L 1.265625 -3.671875 L 1.34375 -3.671875 C 1.394531 -3.742188 1.460938 -3.835938 1.546875 -3.953125 C 1.628906 -4.078125 1.753906 -4.1875 1.921875 -4.28125 C 2.085938 -4.375 2.316406 -4.421875 2.609375 -4.421875 C 2.972656 -4.421875 3.296875 -4.328125 3.578125 -4.140625 C 3.859375 -3.960938 4.078125 -3.703125 4.234375 -3.359375 C 4.390625 -3.023438 4.46875 -2.628906 4.46875 -2.171875 C 4.46875 -1.710938 4.390625 -1.3125 4.234375 -0.96875 C 4.078125 -0.632812 3.859375 -0.375 3.578125 -0.1875 C 3.296875 0 2.972656 0.09375 2.609375 0.09375 C 2.328125 0.09375 2.101562 0.046875 1.9375 -0.046875 C 1.769531 -0.140625 1.640625 -0.242188 1.546875 -0.359375 C 1.460938 -0.484375 1.394531 -0.585938 1.34375 -0.671875 L 1.28125 -0.671875 L 1.28125 1.640625 Z M 1.265625 -2.1875 C 1.265625 -1.6875 1.375 -1.28125 1.59375 -0.96875 C 1.8125 -0.664062 2.117188 -0.515625 2.515625 -0.515625 C 2.796875 -0.515625 3.03125 -0.585938 3.21875 -0.734375 C 3.414062 -0.878906 3.5625 -1.078125 3.65625 -1.328125 C 3.75 -1.585938 3.796875 -1.875 3.796875 -2.1875 C 3.796875 -2.488281 3.75 -2.765625 3.65625 -3.015625 C 3.5625 -3.265625 3.421875 -3.457031 3.234375 -3.59375 C 3.046875 -3.738281 2.804688 -3.8125 2.515625 -3.8125 C 2.109375 -3.8125 1.796875 -3.660156 1.578125 -3.359375 C 1.367188 -3.066406 1.265625 -2.675781 1.265625 -2.1875 Z M 1.265625 -2.1875 "/></g></g></g><g fill="#000000" fill-opacity="1"><g transform="translate(160.510155, 311.608114)"><g><path d="M 0.609375 0 L 0.609375 -4.359375 L 1.265625 -4.359375 L 1.265625 -3.703125 L 1.3125 -3.703125 C 1.382812 -3.921875 1.523438 -4.097656 1.734375 -4.234375 C 1.941406 -4.367188 2.175781 -4.4375 2.4375 -4.4375 C 2.5625 -4.4375 2.664062 -4.421875 2.75 -4.390625 C 2.84375 -4.359375 2.925781 -4.316406 3 -4.265625 L 2.765625 -3.703125 C 2.722656 -3.722656 2.671875 -3.738281 2.609375 -3.75 C 2.546875 -3.769531 2.472656 -3.78125 2.390625 -3.78125 C 2.066406 -3.78125 1.800781 -3.679688 1.59375 -3.484375 C 1.382812 -3.296875 1.28125 -3.054688 1.28125 -2.765625 L 1.28125 0 Z M 0.609375 0 "/></g></g></g><g fill="#000000" fill-opacity="1"><g transform="translate(182.888336, 311.608114)"><g><path d="M 0.703125 -5.8125 L 1.546875 -5.8125 L 3.515625 -0.984375 L 3.59375 -0.984375 L 5.5625 -5.8125 L 6.40625 -5.8125 L 6.40625 0 L 5.75 0 L 5.75 -4.421875 L 5.6875 -4.421875 L 3.875 0 L 3.234375 0 L 1.421875 -4.421875 L 1.359375 -4.421875 L 1.359375 0 L 0.703125 0 Z M 0.703125 -5.8125 "/></g></g></g><g fill="#000000" fill-opacity="1"><g transform="translate(190.168987, 311.608114)"><g><path d="M 1.890625 0.109375 C 1.617188 0.109375 1.367188 0.0546875 1.140625 -0.046875 C 0.921875 -0.160156 0.742188 -0.316406 0.609375 -0.515625 C 0.472656 -0.710938 0.40625 -0.953125 0.40625 -1.234375 C 0.40625 -1.484375 0.453125 -1.6875 0.546875 -1.84375 C 0.648438 -2 0.785156 -2.117188 0.953125 -2.203125 C 1.117188 -2.296875 1.300781 -2.363281 1.5 -2.40625 C 1.695312 -2.457031 1.898438 -2.492188 2.109375 -2.515625 C 2.367188 -2.554688 2.582031 -2.582031 2.75 -2.59375 C 2.914062 -2.613281 3.035156 -2.644531 3.109375 -2.6875 C 3.191406 -2.738281 3.234375 -2.816406 3.234375 -2.921875 L 3.234375 -2.9375 C 3.234375 -3.21875 3.15625 -3.4375 3 -3.59375 C 2.84375 -3.75 2.613281 -3.828125 2.3125 -3.828125 C 1.988281 -3.828125 1.734375 -3.753906 1.546875 -3.609375 C 1.367188 -3.472656 1.242188 -3.328125 1.171875 -3.171875 L 0.53125 -3.390625 C 0.644531 -3.660156 0.796875 -3.867188 0.984375 -4.015625 C 1.179688 -4.160156 1.390625 -4.265625 1.609375 -4.328125 C 1.835938 -4.390625 2.0625 -4.421875 2.28125 -4.421875 C 2.425781 -4.421875 2.585938 -4.40625 2.765625 -4.375 C 2.953125 -4.34375 3.128906 -4.273438 3.296875 -4.171875 C 3.472656 -4.066406 3.613281 -3.910156 3.71875 -3.703125 C 3.832031 -3.492188 3.890625 -3.21875 3.890625 -2.875 L 3.890625 0 L 3.234375 0 L 3.234375 -0.59375 L 3.1875 -0.59375 C 3.144531 -0.5 3.070312 -0.394531 2.96875 -0.28125 C 2.863281 -0.175781 2.722656 -0.0820312 2.546875 0 C 2.367188 0.0703125 2.148438 0.109375 1.890625 0.109375 Z M 2 -0.5 C 2.257812 -0.5 2.484375 -0.550781 2.671875 -0.65625 C 2.859375 -0.757812 3 -0.894531 3.09375 -1.0625 C 3.1875 -1.226562 3.234375 -1.398438 3.234375 -1.578125 L 3.234375 -2.1875 C 3.203125 -2.15625 3.132812 -2.125 3.03125 -2.09375 C 2.9375 -2.070312 2.828125 -2.050781 2.703125 -2.03125 C 2.585938 -2.007812 2.46875 -1.988281 2.34375 -1.96875 C 2.226562 -1.957031 2.132812 -1.945312 2.0625 -1.9375 C 1.894531 -1.914062 1.734375 -1.878906 1.578125 -1.828125 C 1.429688 -1.785156 1.3125 -1.710938 1.21875 -1.609375 C 1.125 -1.503906 1.078125 -1.367188 1.078125 -1.203125 C 1.078125 -0.972656 1.160156 -0.796875 1.328125 -0.671875 C 1.503906 -0.554688 1.726562 -0.5 2 -0.5 Z M 2 -0.5 "/></g></g></g><g fill="#000000" fill-opacity="1"><g transform="translate(194.512243, 311.608114)"><g><path d="M 1.015625 1.6875 C 0.910156 1.6875 0.8125 1.675781 0.71875 1.65625 C 0.625 1.644531 0.5625 1.628906 0.53125 1.609375 L 0.703125 1.015625 C 0.953125 1.078125 1.15625 1.078125 1.3125 1.015625 C 1.476562 0.953125 1.617188 0.757812 1.734375 0.4375 L 1.890625 0.015625 L 0.265625 -4.359375 L 1 -4.359375 L 2.203125 -0.890625 L 2.25 -0.890625 L 3.453125 -4.359375 L 4.1875 -4.359375 L 2.3125 0.703125 C 2.0625 1.359375 1.628906 1.6875 1.015625 1.6875 Z M 1.015625 1.6875 "/></g></g></g><g fill="#000000" fill-opacity="1"><g transform="translate(218.138668, 311.608114)"><g><path d="M 2.9375 -5.8125 L 3.640625 -5.8125 L 3.640625 -1.65625 C 3.640625 -1.101562 3.488281 -0.675781 3.1875 -0.375 C 2.882812 -0.0703125 2.484375 0.078125 1.984375 0.078125 C 1.660156 0.078125 1.375 0.0195312 1.125 -0.09375 C 0.875 -0.207031 0.675781 -0.375 0.53125 -0.59375 C 0.394531 -0.8125 0.328125 -1.066406 0.328125 -1.359375 L 1.015625 -1.359375 C 1.015625 -1.117188 1.101562 -0.921875 1.28125 -0.765625 C 1.46875 -0.617188 1.703125 -0.546875 1.984375 -0.546875 C 2.285156 -0.546875 2.519531 -0.640625 2.6875 -0.828125 C 2.851562 -1.015625 2.9375 -1.289062 2.9375 -1.65625 Z M 2.9375 -5.8125 "/></g></g></g><g fill="#000000" fill-opacity="1"><g transform="translate(222.470772, 311.608114)"><g><path d="M 3.359375 -1.78125 L 3.359375 -4.359375 L 4.03125 -4.359375 L 4.03125 0 L 3.359375 0 L 3.359375 -0.734375 L 3.3125 -0.734375 C 3.21875 -0.515625 3.0625 -0.328125 2.84375 -0.171875 C 2.625 -0.015625 2.347656 0.0625 2.015625 0.0625 C 1.609375 0.0625 1.269531 -0.0703125 1 -0.34375 C 0.738281 -0.613281 0.609375 -1.03125 0.609375 -1.59375 L 0.609375 -4.359375 L 1.28125 -4.359375 L 1.28125 -1.640625 C 1.28125 -1.316406 1.367188 -1.0625 1.546875 -0.875 C 1.734375 -0.6875 1.960938 -0.59375 2.234375 -0.59375 C 2.398438 -0.59375 2.570312 -0.632812 2.75 -0.71875 C 2.925781 -0.800781 3.070312 -0.929688 3.1875 -1.109375 C 3.300781 -1.285156 3.359375 -1.507812 3.359375 -1.78125 Z M 3.359375 -1.78125 "/></g></g></g><g fill="#000000" fill-opacity="1"><g transform="translate(227.109069, 311.608114)"><g><path d="M 1.28125 -2.625 L 1.28125 0 L 0.609375 0 L 0.609375 -4.359375 L 1.265625 -4.359375 L 1.265625 -3.6875 L 1.3125 -3.6875 C 1.414062 -3.90625 1.570312 -4.082031 1.78125 -4.21875 C 1.988281 -4.351562 2.257812 -4.421875 2.59375 -4.421875 C 3.03125 -4.421875 3.382812 -4.285156 3.65625 -4.015625 C 3.925781 -3.742188 4.0625 -3.328125 4.0625 -2.765625 L 4.0625 0 L 3.390625 0 L 3.390625 -2.734375 C 3.390625 -3.066406 3.300781 -3.328125 3.125 -3.515625 C 2.945312 -3.710938 2.703125 -3.8125 2.390625 -3.8125 C 2.078125 -3.8125 1.8125 -3.707031 1.59375 -3.5 C 1.382812 -3.300781 1.28125 -3.007812 1.28125 -2.625 Z M 1.28125 -2.625 "/></g></g></g><g fill="#000000" fill-opacity="1"><g transform="translate(253.545837, 311.608114)"><g><path d="M 2.9375 -5.8125 L 3.640625 -5.8125 L 3.640625 -1.65625 C 3.640625 -1.101562 3.488281 -0.675781 3.1875 -0.375 C 2.882812 -0.0703125 2.484375 0.078125 1.984375 0.078125 C 1.660156 0.078125 1.375 0.0195312 1.125 -0.09375 C 0.875 -0.207031 0.675781 -0.375 0.53125 -0.59375 C 0.394531 -0.8125 0.328125 -1.066406 0.328125 -1.359375 L 1.015625 -1.359375 C 1.015625 -1.117188 1.101562 -0.921875 1.28125 -0.765625 C 1.46875 -0.617188 1.703125 -0.546875 1.984375 -0.546875 C 2.285156 -0.546875 2.519531 -0.640625 2.6875 -0.828125 C 2.851562 -1.015625 2.9375 -1.289062 2.9375 -1.65625 Z M 2.9375 -5.8125 "/></g></g></g><g fill="#000000" fill-opacity="1"><g transform="translate(257.877941, 311.608114)"><g><path d="M 3.359375 -1.78125 L 3.359375 -4.359375 L 4.03125 -4.359375 L 4.03125 0 L 3.359375 0 L 3.359375 -0.734375 L 3.3125 -0.734375 C 3.21875 -0.515625 3.0625 -0.328125 2.84375 -0.171875 C 2.625 -0.015625 2.347656 0.0625 2.015625 0.0625 C 1.609375 0.0625 1.269531 -0.0703125 1 -0.34375 C 0.738281 -0.613281 0.609375 -1.03125 0.609375 -1.59375 L 0.609375 -4.359375 L 1.28125 -4.359375 L 1.28125 -1.640625 C 1.28125 -1.316406 1.367188 -1.0625 1.546875 -0.875 C 1.734375 -0.6875 1.960938 -0.59375 2.234375 -0.59375 C 2.398438 -0.59375 2.570312 -0.632812 2.75 -0.71875 C 2.925781 -0.800781 3.070312 -0.929688 3.1875 -1.109375 C 3.300781 -1.285156 3.359375 -1.507812 3.359375 -1.78125 Z M 3.359375 -1.78125 "/></g></g></g><g fill="#000000" fill-opacity="1"><g transform="translate(262.516238, 311.608114)"><g><path d="M 1.28125 -5.8125 L 1.28125 0 L 0.609375 0 L 0.609375 -5.8125 Z M 1.28125 -5.8125 "/></g></g></g><g fill="#000000" fill-opacity="1"><g transform="translate(286.00192, 311.608114)"><g><path d="M 0.9375 0 L 0.203125 0 L 2.34375 -5.8125 L 3.0625 -5.8125 L 5.203125 0 L 4.46875 0 L 3.875 -1.640625 L 1.53125 -1.640625 Z M 1.75 -2.265625 L 3.65625 -2.265625 L 2.734375 -4.890625 L 2.6875 -4.890625 Z M 1.75 -2.265625 "/></g></g></g><g fill="#000000" fill-opacity="1"><g transform="translate(291.40004, 311.608114)"><g><path d="M 3.359375 -1.78125 L 3.359375 -4.359375 L 4.03125 -4.359375 L 4.03125 0 L 3.359375 0 L 3.359375 -0.734375 L 3.3125 -0.734375 C 3.21875 -0.515625 3.0625 -0.328125 2.84375 -0.171875 C 2.625 -0.015625 2.347656 0.0625 2.015625 0.0625 C 1.609375 0.0625 1.269531 -0.0703125 1 -0.34375 C 0.738281 -0.613281 0.609375 -1.03125 0.609375 -1.59375 L 0.609375 -4.359375 L 1.28125 -4.359375 L 1.28125 -1.640625 C 1.28125 -1.316406 1.367188 -1.0625 1.546875 -0.875 C 1.734375 -0.6875 1.960938 -0.59375 2.234375 -0.59375 C 2.398438 -0.59375 2.570312 -0.632812 2.75 -0.71875 C 2.925781 -0.800781 3.070312 -0.929688 3.1875 -1.109375 C 3.300781 -1.285156 3.359375 -1.507812 3.359375 -1.78125 Z M 3.359375 -1.78125 "/></g></g></g><g fill="#000000" fill-opacity="1"><g transform="translate(296.038337, 311.608114)"><g><path d="M 2.375 1.734375 C 1.882812 1.734375 1.5 1.644531 1.21875 1.46875 C 0.9375 1.289062 0.726562 1.085938 0.59375 0.859375 L 1.125 0.484375 C 1.1875 0.554688 1.265625 0.644531 1.359375 0.75 C 1.453125 0.851562 1.578125 0.941406 1.734375 1.015625 C 1.898438 1.097656 2.113281 1.140625 2.375 1.140625 C 2.726562 1.140625 3.019531 1.050781 3.25 0.875 C 3.476562 0.707031 3.59375 0.441406 3.59375 0.078125 L 3.59375 -0.8125 L 3.53125 -0.8125 C 3.476562 -0.726562 3.40625 -0.628906 3.3125 -0.515625 C 3.226562 -0.398438 3.101562 -0.296875 2.9375 -0.203125 C 2.769531 -0.109375 2.546875 -0.0625 2.265625 -0.0625 C 1.910156 -0.0625 1.59375 -0.144531 1.3125 -0.3125 C 1.03125 -0.476562 0.804688 -0.71875 0.640625 -1.03125 C 0.484375 -1.351562 0.40625 -1.742188 0.40625 -2.203125 C 0.40625 -2.648438 0.484375 -3.039062 0.640625 -3.375 C 0.796875 -3.707031 1.015625 -3.960938 1.296875 -4.140625 C 1.578125 -4.328125 1.898438 -4.421875 2.265625 -4.421875 C 2.554688 -4.421875 2.785156 -4.375 2.953125 -4.28125 C 3.117188 -4.1875 3.242188 -4.078125 3.328125 -3.953125 C 3.421875 -3.835938 3.492188 -3.742188 3.546875 -3.671875 L 3.609375 -3.671875 L 3.609375 -4.359375 L 4.265625 -4.359375 L 4.265625 0.125 C 4.265625 0.5 4.175781 0.800781 4 1.03125 C 3.832031 1.269531 3.601562 1.445312 3.3125 1.5625 C 3.03125 1.675781 2.71875 1.734375 2.375 1.734375 Z M 2.359375 -0.671875 C 2.753906 -0.671875 3.0625 -0.804688 3.28125 -1.078125 C 3.5 -1.347656 3.609375 -1.726562 3.609375 -2.21875 C 3.609375 -2.6875 3.5 -3.066406 3.28125 -3.359375 C 3.070312 -3.660156 2.765625 -3.8125 2.359375 -3.8125 C 2.066406 -3.8125 1.828125 -3.738281 1.640625 -3.59375 C 1.453125 -3.457031 1.3125 -3.265625 1.21875 -3.015625 C 1.125 -2.773438 1.078125 -2.507812 1.078125 -2.21875 C 1.078125 -1.757812 1.179688 -1.382812 1.390625 -1.09375 C 1.609375 -0.8125 1.929688 -0.671875 2.359375 -0.671875 Z M 2.359375 -0.671875 "/></g></g></g><g fill="#000000" fill-opacity="1"><g transform="translate(320.18302, 311.608114)"><g><path d="M 3.890625 -4.359375 C 3.847656 -4.648438 3.707031 -4.875 3.46875 -5.03125 C 3.226562 -5.1875 2.929688 -5.265625 2.578125 -5.265625 C 2.191406 -5.265625 1.878906 -5.171875 1.640625 -4.984375 C 1.410156 -4.804688 1.296875 -4.582031 1.296875 -4.3125 C 1.296875 -4.101562 1.359375 -3.929688 1.484375 -3.796875 C 1.609375 -3.671875 1.757812 -3.570312 1.9375 -3.5 C 2.113281 -3.425781 2.273438 -3.375 2.421875 -3.34375 L 3.015625 -3.1875 C 3.160156 -3.144531 3.328125 -3.085938 3.515625 -3.015625 C 3.703125 -2.941406 3.878906 -2.84375 4.046875 -2.71875 C 4.222656 -2.601562 4.363281 -2.453125 4.46875 -2.265625 C 4.582031 -2.078125 4.640625 -1.847656 4.640625 -1.578125 C 4.640625 -1.265625 4.554688 -0.976562 4.390625 -0.71875 C 4.234375 -0.46875 4 -0.265625 3.6875 -0.109375 C 3.375 0.0351562 2.992188 0.109375 2.546875 0.109375 C 1.921875 0.109375 1.421875 -0.0351562 1.046875 -0.328125 C 0.679688 -0.628906 0.484375 -1.019531 0.453125 -1.5 L 1.1875 -1.5 C 1.195312 -1.28125 1.265625 -1.097656 1.390625 -0.953125 C 1.523438 -0.804688 1.691406 -0.695312 1.890625 -0.625 C 2.097656 -0.5625 2.316406 -0.53125 2.546875 -0.53125 C 2.816406 -0.53125 3.054688 -0.570312 3.265625 -0.65625 C 3.484375 -0.75 3.65625 -0.875 3.78125 -1.03125 C 3.90625 -1.1875 3.96875 -1.375 3.96875 -1.59375 C 3.96875 -1.78125 3.910156 -1.9375 3.796875 -2.0625 C 3.691406 -2.1875 3.550781 -2.285156 3.375 -2.359375 C 3.195312 -2.429688 3.007812 -2.5 2.8125 -2.5625 L 2.09375 -2.765625 C 1.632812 -2.890625 1.269531 -3.070312 1 -3.3125 C 0.738281 -3.5625 0.609375 -3.878906 0.609375 -4.265625 C 0.609375 -4.597656 0.695312 -4.882812 0.875 -5.125 C 1.050781 -5.363281 1.289062 -5.550781 1.59375 -5.6875 C 1.894531 -5.820312 2.234375 -5.890625 2.609375 -5.890625 C 2.984375 -5.890625 3.316406 -5.820312 3.609375 -5.6875 C 3.898438 -5.5625 4.128906 -5.378906 4.296875 -5.140625 C 4.460938 -4.910156 4.550781 -4.648438 4.5625 -4.359375 Z M 3.890625 -4.359375 "/></g></g></g><g fill="#000000" fill-opacity="1"><g transform="translate(325.274947, 311.608114)"><g><path d="M 2.4375 0.09375 C 2.019531 0.09375 1.660156 0 1.359375 -0.1875 C 1.054688 -0.375 0.820312 -0.632812 0.65625 -0.96875 C 0.488281 -1.3125 0.40625 -1.703125 0.40625 -2.140625 C 0.40625 -2.585938 0.488281 -2.984375 0.65625 -3.328125 C 0.820312 -3.671875 1.050781 -3.9375 1.34375 -4.125 C 1.632812 -4.320312 1.976562 -4.421875 2.375 -4.421875 C 2.601562 -4.421875 2.828125 -4.378906 3.046875 -4.296875 C 3.265625 -4.222656 3.460938 -4.101562 3.640625 -3.9375 C 3.828125 -3.769531 3.972656 -3.546875 4.078125 -3.265625 C 4.191406 -2.984375 4.25 -2.640625 4.25 -2.234375 L 4.25 -1.953125 L 1.078125 -1.953125 C 1.097656 -1.484375 1.234375 -1.125 1.484375 -0.875 C 1.734375 -0.632812 2.050781 -0.515625 2.4375 -0.515625 C 2.707031 -0.515625 2.9375 -0.570312 3.125 -0.6875 C 3.3125 -0.800781 3.445312 -0.96875 3.53125 -1.1875 L 4.1875 -1.015625 C 4.082031 -0.679688 3.875 -0.410156 3.5625 -0.203125 C 3.257812 -0.00390625 2.882812 0.09375 2.4375 0.09375 Z M 1.078125 -2.53125 L 3.5625 -2.53125 C 3.5625 -2.90625 3.453125 -3.210938 3.234375 -3.453125 C 3.023438 -3.691406 2.738281 -3.8125 2.375 -3.8125 C 2.113281 -3.8125 1.890625 -3.75 1.703125 -3.625 C 1.515625 -3.507812 1.367188 -3.351562 1.265625 -3.15625 C 1.160156 -2.96875 1.097656 -2.757812 1.078125 -2.53125 Z M 1.078125 -2.53125 "/></g></g></g><g fill="#000000" fill-opacity="1"><g transform="translate(329.924591, 311.608114)"><g><path d="M 0.609375 1.640625 L 0.609375 -4.359375 L 1.265625 -4.359375 L 1.265625 -3.671875 L 1.34375 -3.671875 C 1.394531 -3.742188 1.460938 -3.835938 1.546875 -3.953125 C 1.628906 -4.078125 1.753906 -4.1875 1.921875 -4.28125 C 2.085938 -4.375 2.316406 -4.421875 2.609375 -4.421875 C 2.972656 -4.421875 3.296875 -4.328125 3.578125 -4.140625 C 3.859375 -3.960938 4.078125 -3.703125 4.234375 -3.359375 C 4.390625 -3.023438 4.46875 -2.628906 4.46875 -2.171875 C 4.46875 -1.710938 4.390625 -1.3125 4.234375 -0.96875 C 4.078125 -0.632812 3.859375 -0.375 3.578125 -0.1875 C 3.296875 0 2.972656 0.09375 2.609375 0.09375 C 2.328125 0.09375 2.101562 0.046875 1.9375 -0.046875 C 1.769531 -0.140625 1.640625 -0.242188 1.546875 -0.359375 C 1.460938 -0.484375 1.394531 -0.585938 1.34375 -0.671875 L 1.28125 -0.671875 L 1.28125 1.640625 Z M 1.265625 -2.1875 C 1.265625 -1.6875 1.375 -1.28125 1.59375 -0.96875 C 1.8125 -0.664062 2.117188 -0.515625 2.515625 -0.515625 C 2.796875 -0.515625 3.03125 -0.585938 3.21875 -0.734375 C 3.414062 -0.878906 3.5625 -1.078125 3.65625 -1.328125 C 3.75 -1.585938 3.796875 -1.875 3.796875 -2.1875 C 3.796875 -2.488281 3.75 -2.765625 3.65625 -3.015625 C 3.5625 -3.265625 3.421875 -3.457031 3.234375 -3.59375 C 3.046875 -3.738281 2.804688 -3.8125 2.515625 -3.8125 C 2.109375 -3.8125 1.796875 -3.660156 1.578125 -3.359375 C 1.367188 -3.066406 1.265625 -2.675781 1.265625 -2.1875 Z M 1.265625 -2.1875 "/></g></g></g><g fill="#000000" fill-opacity="1"><g transform="translate(354.335597, 311.608114)"><g><path d="M 5.609375 -2.90625 C 5.609375 -2.289062 5.5 -1.757812 5.28125 -1.3125 C 5.0625 -0.863281 4.757812 -0.519531 4.375 -0.28125 C 3.988281 -0.0390625 3.546875 0.078125 3.046875 0.078125 C 2.546875 0.078125 2.101562 -0.0390625 1.71875 -0.28125 C 1.332031 -0.519531 1.03125 -0.863281 0.8125 -1.3125 C 0.59375 -1.757812 0.484375 -2.289062 0.484375 -2.90625 C 0.484375 -3.519531 0.59375 -4.050781 0.8125 -4.5 C 1.03125 -4.945312 1.332031 -5.289062 1.71875 -5.53125 C 2.101562 -5.769531 2.546875 -5.890625 3.046875 -5.890625 C 3.546875 -5.890625 3.988281 -5.769531 4.375 -5.53125 C 4.757812 -5.289062 5.0625 -4.945312 5.28125 -4.5 C 5.5 -4.050781 5.609375 -3.519531 5.609375 -2.90625 Z M 4.9375 -2.90625 C 4.9375 -3.414062 4.847656 -3.84375 4.671875 -4.1875 C 4.503906 -4.53125 4.28125 -4.789062 4 -4.96875 C 3.71875 -5.144531 3.398438 -5.234375 3.046875 -5.234375 C 2.691406 -5.234375 2.367188 -5.144531 2.078125 -4.96875 C 1.796875 -4.789062 1.570312 -4.53125 1.40625 -4.1875 C 1.238281 -3.84375 1.15625 -3.414062 1.15625 -2.90625 C 1.15625 -2.40625 1.238281 -1.976562 1.40625 -1.625 C 1.570312 -1.28125 1.796875 -1.019531 2.078125 -0.84375 C 2.367188 -0.664062 2.691406 -0.578125 3.046875 -0.578125 C 3.398438 -0.578125 3.71875 -0.664062 4 -0.84375 C 4.28125 -1.019531 4.503906 -1.28125 4.671875 -1.625 C 4.847656 -1.976562 4.9375 -2.40625 4.9375 -2.90625 Z M 4.9375 -2.90625 "/></g></g></g><g fill="#000000" fill-opacity="1"><g transform="translate(360.414156, 311.608114)"><g><path d="M 2.390625 0.09375 C 1.972656 0.09375 1.617188 0 1.328125 -0.1875 C 1.035156 -0.382812 0.804688 -0.648438 0.640625 -0.984375 C 0.484375 -1.328125 0.40625 -1.71875 0.40625 -2.15625 C 0.40625 -2.601562 0.488281 -2.992188 0.65625 -3.328125 C 0.820312 -3.671875 1.050781 -3.9375 1.34375 -4.125 C 1.632812 -4.320312 1.976562 -4.421875 2.375 -4.421875 C 2.675781 -4.421875 2.953125 -4.363281 3.203125 -4.25 C 3.453125 -4.132812 3.65625 -3.972656 3.8125 -3.765625 C 3.96875 -3.566406 4.066406 -3.332031 4.109375 -3.0625 L 3.4375 -3.0625 C 3.382812 -3.257812 3.269531 -3.429688 3.09375 -3.578125 C 2.914062 -3.734375 2.679688 -3.8125 2.390625 -3.8125 C 1.992188 -3.8125 1.675781 -3.660156 1.4375 -3.359375 C 1.195312 -3.066406 1.078125 -2.675781 1.078125 -2.1875 C 1.078125 -1.675781 1.195312 -1.269531 1.4375 -0.96875 C 1.675781 -0.664062 1.992188 -0.515625 2.390625 -0.515625 C 2.648438 -0.515625 2.875 -0.582031 3.0625 -0.71875 C 3.25 -0.851562 3.375 -1.035156 3.4375 -1.265625 L 4.109375 -1.265625 C 4.066406 -1.015625 3.96875 -0.785156 3.8125 -0.578125 C 3.664062 -0.367188 3.472656 -0.203125 3.234375 -0.078125 C 2.992188 0.0351562 2.710938 0.09375 2.390625 0.09375 Z M 2.390625 0.09375 "/></g></g></g><g fill="#000000" fill-opacity="1"><g transform="translate(364.871003, 311.608114)"><g><path d="M 2.515625 -4.359375 L 2.515625 -3.796875 L 1.578125 -3.796875 L 1.578125 -1.25 C 1.578125 -1.0625 1.601562 -0.921875 1.65625 -0.828125 C 1.71875 -0.734375 1.789062 -0.671875 1.875 -0.640625 C 1.96875 -0.609375 2.0625 -0.59375 2.15625 -0.59375 C 2.226562 -0.59375 2.285156 -0.59375 2.328125 -0.59375 C 2.378906 -0.601562 2.421875 -0.613281 2.453125 -0.625 L 2.59375 -0.015625 C 2.539062 -0.00390625 2.472656 0.0078125 2.390625 0.03125 C 2.316406 0.0507812 2.21875 0.0625 2.09375 0.0625 C 1.90625 0.0625 1.71875 0.0195312 1.53125 -0.0625 C 1.351562 -0.144531 1.203125 -0.269531 1.078125 -0.4375 C 0.960938 -0.601562 0.90625 -0.8125 0.90625 -1.0625 L 0.90625 -3.796875 L 0.25 -3.796875 L 0.25 -4.359375 L 0.90625 -4.359375 L 0.90625 -5.40625 L 1.578125 -5.40625 L 1.578125 -4.359375 Z M 2.515625 -4.359375 "/></g></g></g><g fill="#000000" fill-opacity="1"><g transform="translate(387.54726, 311.608114)"><g><path d="M 5.3125 -5.8125 L 5.3125 0 L 4.640625 0 L 1.46875 -4.5625 L 1.40625 -4.5625 L 1.40625 0 L 0.703125 0 L 0.703125 -5.8125 L 1.390625 -5.8125 L 4.5625 -1.234375 L 4.625 -1.234375 L 4.625 -5.8125 Z M 5.3125 -5.8125 "/></g></g></g><g fill="#000000" fill-opacity="1"><g transform="translate(393.557766, 311.608114)"><g><path d="M 2.390625 0.09375 C 1.992188 0.09375 1.644531 0 1.34375 -0.1875 C 1.050781 -0.375 0.820312 -0.632812 0.65625 -0.96875 C 0.488281 -1.3125 0.40625 -1.707031 0.40625 -2.15625 C 0.40625 -2.613281 0.488281 -3.007812 0.65625 -3.34375 C 0.820312 -3.6875 1.050781 -3.953125 1.34375 -4.140625 C 1.644531 -4.328125 1.992188 -4.421875 2.390625 -4.421875 C 2.785156 -4.421875 3.128906 -4.328125 3.421875 -4.140625 C 3.710938 -3.953125 3.941406 -3.6875 4.109375 -3.34375 C 4.273438 -3.007812 4.359375 -2.613281 4.359375 -2.15625 C 4.359375 -1.707031 4.273438 -1.3125 4.109375 -0.96875 C 3.941406 -0.632812 3.710938 -0.375 3.421875 -0.1875 C 3.128906 0 2.785156 0.09375 2.390625 0.09375 Z M 2.390625 -0.515625 C 2.679688 -0.515625 2.925781 -0.585938 3.125 -0.734375 C 3.320312 -0.890625 3.460938 -1.09375 3.546875 -1.34375 C 3.640625 -1.59375 3.6875 -1.863281 3.6875 -2.15625 C 3.6875 -2.445312 3.640625 -2.71875 3.546875 -2.96875 C 3.460938 -3.226562 3.320312 -3.429688 3.125 -3.578125 C 2.925781 -3.734375 2.679688 -3.8125 2.390625 -3.8125 C 2.085938 -3.8125 1.835938 -3.734375 1.640625 -3.578125 C 1.453125 -3.429688 1.3125 -3.226562 1.21875 -2.96875 C 1.125 -2.71875 1.078125 -2.445312 1.078125 -2.15625 C 1.078125 -1.863281 1.125 -1.59375 1.21875 -1.34375 C 1.3125 -1.09375 1.453125 -0.890625 1.640625 -0.734375 C 1.835938 -0.585938 2.085938 -0.515625 2.390625 -0.515625 Z M 2.390625 -0.515625 "/></g></g></g><g fill="#000000" fill-opacity="1"><g transform="translate(398.161856, 311.608114)"><g><path d="M 4.1875 -4.359375 L 2.5625 0 L 1.890625 0 L 0.265625 -4.359375 L 1 -4.359375 L 2.203125 -0.890625 L 2.25 -0.890625 L 3.453125 -4.359375 Z M 4.1875 -4.359375 "/></g></g></g><g fill="#000000" fill-opacity="1"><g transform="translate(421.671361, 311.608114)"><g><path d="M 2.5 0 L 0.703125 0 L 0.703125 -5.8125 L 2.578125 -5.8125 C 3.140625 -5.8125 3.617188 -5.695312 4.015625 -5.46875 C 4.421875 -5.238281 4.726562 -4.90625 4.9375 -4.46875 C 5.15625 -4.039062 5.265625 -3.523438 5.265625 -2.921875 C 5.265625 -2.316406 5.15625 -1.796875 4.9375 -1.359375 C 4.726562 -0.921875 4.414062 -0.582031 4 -0.34375 C 3.59375 -0.113281 3.09375 0 2.5 0 Z M 1.40625 -0.625 L 2.453125 -0.625 C 3.171875 -0.625 3.707031 -0.828125 4.0625 -1.234375 C 4.414062 -1.648438 4.59375 -2.210938 4.59375 -2.921875 C 4.59375 -3.628906 4.421875 -4.179688 4.078125 -4.578125 C 3.734375 -4.984375 3.21875 -5.1875 2.53125 -5.1875 L 1.40625 -5.1875 Z M 1.40625 -0.625 "/></g></g></g><g fill="#000000" fill-opacity="1"><g transform="translate(427.4097, 311.608114)"><g><path d="M 2.4375 0.09375 C 2.019531 0.09375 1.660156 0 1.359375 -0.1875 C 1.054688 -0.375 0.820312 -0.632812 0.65625 -0.96875 C 0.488281 -1.3125 0.40625 -1.703125 0.40625 -2.140625 C 0.40625 -2.585938 0.488281 -2.984375 0.65625 -3.328125 C 0.820312 -3.671875 1.050781 -3.9375 1.34375 -4.125 C 1.632812 -4.320312 1.976562 -4.421875 2.375 -4.421875 C 2.601562 -4.421875 2.828125 -4.378906 3.046875 -4.296875 C 3.265625 -4.222656 3.460938 -4.101562 3.640625 -3.9375 C 3.828125 -3.769531 3.972656 -3.546875 4.078125 -3.265625 C 4.191406 -2.984375 4.25 -2.640625 4.25 -2.234375 L 4.25 -1.953125 L 1.078125 -1.953125 C 1.097656 -1.484375 1.234375 -1.125 1.484375 -0.875 C 1.734375 -0.632812 2.050781 -0.515625 2.4375 -0.515625 C 2.707031 -0.515625 2.9375 -0.570312 3.125 -0.6875 C 3.3125 -0.800781 3.445312 -0.96875 3.53125 -1.1875 L 4.1875 -1.015625 C 4.082031 -0.679688 3.875 -0.410156 3.5625 -0.203125 C 3.257812 -0.00390625 2.882812 0.09375 2.4375 0.09375 Z M 1.078125 -2.53125 L 3.5625 -2.53125 C 3.5625 -2.90625 3.453125 -3.210938 3.234375 -3.453125 C 3.023438 -3.691406 2.738281 -3.8125 2.375 -3.8125 C 2.113281 -3.8125 1.890625 -3.75 1.703125 -3.625 C 1.515625 -3.507812 1.367188 -3.351562 1.265625 -3.15625 C 1.160156 -2.96875 1.097656 -2.757812 1.078125 -2.53125 Z M 1.078125 -2.53125 "/></g></g></g><g fill="#000000" fill-opacity="1"><g transform="translate(432.059344, 311.608114)"><g><path d="M 2.390625 0.09375 C 1.972656 0.09375 1.617188 0 1.328125 -0.1875 C 1.035156 -0.382812 0.804688 -0.648438 0.640625 -0.984375 C 0.484375 -1.328125 0.40625 -1.71875 0.40625 -2.15625 C 0.40625 -2.601562 0.488281 -2.992188 0.65625 -3.328125 C 0.820312 -3.671875 1.050781 -3.9375 1.34375 -4.125 C 1.632812 -4.320312 1.976562 -4.421875 2.375 -4.421875 C 2.675781 -4.421875 2.953125 -4.363281 3.203125 -4.25 C 3.453125 -4.132812 3.65625 -3.972656 3.8125 -3.765625 C 3.96875 -3.566406 4.066406 -3.332031 4.109375 -3.0625 L 3.4375 -3.0625 C 3.382812 -3.257812 3.269531 -3.429688 3.09375 -3.578125 C 2.914062 -3.734375 2.679688 -3.8125 2.390625 -3.8125 C 1.992188 -3.8125 1.675781 -3.660156 1.4375 -3.359375 C 1.195312 -3.066406 1.078125 -2.675781 1.078125 -2.1875 C 1.078125 -1.675781 1.195312 -1.269531 1.4375 -0.96875 C 1.675781 -0.664062 1.992188 -0.515625 2.390625 -0.515625 C 2.648438 -0.515625 2.875 -0.582031 3.0625 -0.71875 C 3.25 -0.851562 3.375 -1.035156 3.4375 -1.265625 L 4.109375 -1.265625 C 4.066406 -1.015625 3.96875 -0.785156 3.8125 -0.578125 C 3.664062 -0.367188 3.472656 -0.203125 3.234375 -0.078125 C 2.992188 0.0351562 2.710938 0.09375 2.390625 0.09375 Z M 2.390625 0.09375 "/></g></g></g><g fill="#000000" fill-opacity="1"><g transform="translate(26.345155, 303.505305)"><g><path d="M 2.5 0.078125 C 1.851562 0.078125 1.351562 -0.179688 1 -0.703125 C 0.65625 -1.222656 0.484375 -1.957031 0.484375 -2.90625 C 0.484375 -3.851562 0.660156 -4.585938 1.015625 -5.109375 C 1.367188 -5.628906 1.863281 -5.890625 2.5 -5.890625 C 3.132812 -5.890625 3.628906 -5.628906 3.984375 -5.109375 C 4.335938 -4.585938 4.515625 -3.851562 4.515625 -2.90625 C 4.515625 -1.957031 4.335938 -1.222656 3.984375 -0.703125 C 3.640625 -0.179688 3.144531 0.078125 2.5 0.078125 Z M 2.5 -0.546875 C 2.925781 -0.546875 3.253906 -0.75 3.484375 -1.15625 C 3.722656 -1.5625 3.84375 -2.144531 3.84375 -2.90625 C 3.84375 -3.664062 3.722656 -4.25 3.484375 -4.65625 C 3.242188 -5.070312 2.914062 -5.28125 2.5 -5.28125 C 2.082031 -5.28125 1.753906 -5.070312 1.515625 -4.65625 C 1.273438 -4.25 1.15625 -3.664062 1.15625 -2.90625 C 1.15625 -2.144531 1.269531 -1.5625 1.5 -1.15625 C 1.738281 -0.75 2.070312 -0.546875 2.5 -0.546875 Z M 2.5 -0.546875 "/></g></g></g><g fill="#000000" fill-opacity="1"><g transform="translate(22.096739, 254.968333)"><g><path d="M 2.421875 0.078125 C 2.085938 0.078125 1.785156 0.015625 1.515625 -0.109375 C 1.253906 -0.242188 1.039062 -0.425781 0.875 -0.65625 C 0.71875 -0.894531 0.628906 -1.160156 0.609375 -1.453125 L 1.296875 -1.453125 C 1.316406 -1.191406 1.429688 -0.972656 1.640625 -0.796875 C 1.859375 -0.628906 2.117188 -0.546875 2.421875 -0.546875 C 2.660156 -0.546875 2.875 -0.597656 3.0625 -0.703125 C 3.25 -0.816406 3.394531 -0.972656 3.5 -1.171875 C 3.601562 -1.367188 3.65625 -1.59375 3.65625 -1.84375 C 3.65625 -2.09375 3.597656 -2.316406 3.484375 -2.515625 C 3.378906 -2.722656 3.226562 -2.882812 3.03125 -3 C 2.84375 -3.113281 2.625 -3.171875 2.375 -3.171875 C 2.195312 -3.171875 2.015625 -3.140625 1.828125 -3.078125 C 1.640625 -3.023438 1.484375 -2.957031 1.359375 -2.875 L 0.703125 -2.953125 L 1.0625 -5.8125 L 4.078125 -5.8125 L 4.078125 -5.1875 L 1.640625 -5.1875 L 1.4375 -3.484375 L 1.484375 -3.484375 C 1.597656 -3.578125 1.742188 -3.65625 1.921875 -3.71875 C 2.109375 -3.78125 2.296875 -3.8125 2.484375 -3.8125 C 2.835938 -3.8125 3.15625 -3.722656 3.4375 -3.546875 C 3.71875 -3.378906 3.9375 -3.148438 4.09375 -2.859375 C 4.257812 -2.566406 4.34375 -2.234375 4.34375 -1.859375 C 4.34375 -1.484375 4.257812 -1.148438 4.09375 -0.859375 C 3.925781 -0.566406 3.695312 -0.335938 3.40625 -0.171875 C 3.113281 -0.00390625 2.785156 0.078125 2.421875 0.078125 Z M 2.421875 0.078125 "/></g></g></g><g fill="#000000" fill-opacity="1"><g transform="translate(26.950511, 254.968333)"><g><path d="M 2.5 0.078125 C 1.851562 0.078125 1.351562 -0.179688 1 -0.703125 C 0.65625 -1.222656 0.484375 -1.957031 0.484375 -2.90625 C 0.484375 -3.851562 0.660156 -4.585938 1.015625 -5.109375 C 1.367188 -5.628906 1.863281 -5.890625 2.5 -5.890625 C 3.132812 -5.890625 3.628906 -5.628906 3.984375 -5.109375 C 4.335938 -4.585938 4.515625 -3.851562 4.515625 -2.90625 C 4.515625 -1.957031 4.335938 -1.222656 3.984375 -0.703125 C 3.640625 -0.179688 3.144531 0.078125 2.5 0.078125 Z M 2.5 -0.546875 C 2.925781 -0.546875 3.253906 -0.75 3.484375 -1.15625 C 3.722656 -1.5625 3.84375 -2.144531 3.84375 -2.90625 C 3.84375 -3.664062 3.722656 -4.25 3.484375 -4.65625 C 3.242188 -5.070312 2.914062 -5.28125 2.5 -5.28125 C 2.082031 -5.28125 1.753906 -5.070312 1.515625 -4.65625 C 1.273438 -4.25 1.15625 -3.664062 1.15625 -2.90625 C 1.15625 -2.144531 1.269531 -1.5625 1.5 -1.15625 C 1.738281 -0.75 2.070312 -0.546875 2.5 -0.546875 Z M 2.5 -0.546875 "/></g></g></g><g fill="#000000" fill-opacity="1"><g transform="translate(18.432836, 206.431362)"><g><path d="M 2.46875 -5.8125 L 2.46875 0 L 1.765625 0 L 1.765625 -4.796875 L 1.71875 -4.796875 C 1.6875 -4.742188 1.613281 -4.679688 1.5 -4.609375 C 1.394531 -4.546875 1.253906 -4.488281 1.078125 -4.4375 C 0.910156 -4.382812 0.710938 -4.359375 0.484375 -4.359375 L 0.484375 -4.953125 C 0.710938 -4.953125 0.910156 -4.992188 1.078125 -5.078125 C 1.242188 -5.160156 1.378906 -5.253906 1.484375 -5.359375 C 1.597656 -5.472656 1.679688 -5.570312 1.734375 -5.65625 C 1.796875 -5.75 1.832031 -5.800781 1.84375 -5.8125 Z M 2.46875 -5.8125 "/></g></g></g><g fill="#000000" fill-opacity="1"><g transform="translate(21.959758, 206.431362)"><g><path d="M 2.5 0.078125 C 1.851562 0.078125 1.351562 -0.179688 1 -0.703125 C 0.65625 -1.222656 0.484375 -1.957031 0.484375 -2.90625 C 0.484375 -3.851562 0.660156 -4.585938 1.015625 -5.109375 C 1.367188 -5.628906 1.863281 -5.890625 2.5 -5.890625 C 3.132812 -5.890625 3.628906 -5.628906 3.984375 -5.109375 C 4.335938 -4.585938 4.515625 -3.851562 4.515625 -2.90625 C 4.515625 -1.957031 4.335938 -1.222656 3.984375 -0.703125 C 3.640625 -0.179688 3.144531 0.078125 2.5 0.078125 Z M 2.5 -0.546875 C 2.925781 -0.546875 3.253906 -0.75 3.484375 -1.15625 C 3.722656 -1.5625 3.84375 -2.144531 3.84375 -2.90625 C 3.84375 -3.664062 3.722656 -4.25 3.484375 -4.65625 C 3.242188 -5.070312 2.914062 -5.28125 2.5 -5.28125 C 2.082031 -5.28125 1.753906 -5.070312 1.515625 -4.65625 C 1.273438 -4.25 1.15625 -3.664062 1.15625 -2.90625 C 1.15625 -2.144531 1.269531 -1.5625 1.5 -1.15625 C 1.738281 -0.75 2.070312 -0.546875 2.5 -0.546875 Z M 2.5 -0.546875 "/></g></g></g><g fill="#000000" fill-opacity="1"><g transform="translate(26.949621, 206.431362)"><g><path d="M 2.5 0.078125 C 1.851562 0.078125 1.351562 -0.179688 1 -0.703125 C 0.65625 -1.222656 0.484375 -1.957031 0.484375 -2.90625 C 0.484375 -3.851562 0.660156 -4.585938 1.015625 -5.109375 C 1.367188 -5.628906 1.863281 -5.890625 2.5 -5.890625 C 3.132812 -5.890625 3.628906 -5.628906 3.984375 -5.109375 C 4.335938 -4.585938 4.515625 -3.851562 4.515625 -2.90625 C 4.515625 -1.957031 4.335938 -1.222656 3.984375 -0.703125 C 3.640625 -0.179688 3.144531 0.078125 2.5 0.078125 Z M 2.5 -0.546875 C 2.925781 -0.546875 3.253906 -0.75 3.484375 -1.15625 C 3.722656 -1.5625 3.84375 -2.144531 3.84375 -2.90625 C 3.84375 -3.664062 3.722656 -4.25 3.484375 -4.65625 C 3.242188 -5.070312 2.914062 -5.28125 2.5 -5.28125 C 2.082031 -5.28125 1.753906 -5.070312 1.515625 -4.65625 C 1.273438 -4.25 1.15625 -3.664062 1.15625 -2.90625 C 1.15625 -2.144531 1.269531 -1.5625 1.5 -1.15625 C 1.738281 -0.75 2.070312 -0.546875 2.5 -0.546875 Z M 2.5 -0.546875 "/></g></g></g><g fill="#000000" fill-opacity="1"><g transform="translate(18.504118, 157.894407)"><g><path d="M 2.46875 -5.8125 L 2.46875 0 L 1.765625 0 L 1.765625 -4.796875 L 1.71875 -4.796875 C 1.6875 -4.742188 1.613281 -4.679688 1.5 -4.609375 C 1.394531 -4.546875 1.253906 -4.488281 1.078125 -4.4375 C 0.910156 -4.382812 0.710938 -4.359375 0.484375 -4.359375 L 0.484375 -4.953125 C 0.710938 -4.953125 0.910156 -4.992188 1.078125 -5.078125 C 1.242188 -5.160156 1.378906 -5.253906 1.484375 -5.359375 C 1.597656 -5.472656 1.679688 -5.570312 1.734375 -5.65625 C 1.796875 -5.75 1.832031 -5.800781 1.84375 -5.8125 Z M 2.46875 -5.8125 "/></g></g></g><g fill="#000000" fill-opacity="1"><g transform="translate(22.03104, 157.894407)"><g><path d="M 2.421875 0.078125 C 2.085938 0.078125 1.785156 0.015625 1.515625 -0.109375 C 1.253906 -0.242188 1.039062 -0.425781 0.875 -0.65625 C 0.71875 -0.894531 0.628906 -1.160156 0.609375 -1.453125 L 1.296875 -1.453125 C 1.316406 -1.191406 1.429688 -0.972656 1.640625 -0.796875 C 1.859375 -0.628906 2.117188 -0.546875 2.421875 -0.546875 C 2.660156 -0.546875 2.875 -0.597656 3.0625 -0.703125 C 3.25 -0.816406 3.394531 -0.972656 3.5 -1.171875 C 3.601562 -1.367188 3.65625 -1.59375 3.65625 -1.84375 C 3.65625 -2.09375 3.597656 -2.316406 3.484375 -2.515625 C 3.378906 -2.722656 3.226562 -2.882812 3.03125 -3 C 2.84375 -3.113281 2.625 -3.171875 2.375 -3.171875 C 2.195312 -3.171875 2.015625 -3.140625 1.828125 -3.078125 C 1.640625 -3.023438 1.484375 -2.957031 1.359375 -2.875 L 0.703125 -2.953125 L 1.0625 -5.8125 L 4.078125 -5.8125 L 4.078125 -5.1875 L 1.640625 -5.1875 L 1.4375 -3.484375 L 1.484375 -3.484375 C 1.597656 -3.578125 1.742188 -3.65625 1.921875 -3.71875 C 2.109375 -3.78125 2.296875 -3.8125 2.484375 -3.8125 C 2.835938 -3.8125 3.15625 -3.722656 3.4375 -3.546875 C 3.71875 -3.378906 3.9375 -3.148438 4.09375 -2.859375 C 4.257812 -2.566406 4.34375 -2.234375 4.34375 -1.859375 C 4.34375 -1.484375 4.257812 -1.148438 4.09375 -0.859375 C 3.925781 -0.566406 3.695312 -0.335938 3.40625 -0.171875 C 3.113281 -0.00390625 2.785156 0.078125 2.421875 0.078125 Z M 2.421875 0.078125 "/></g></g></g><g fill="#000000" fill-opacity="1"><g transform="translate(26.884812, 157.894407)"><g><path d="M 2.5 0.078125 C 1.851562 0.078125 1.351562 -0.179688 1 -0.703125 C 0.65625 -1.222656 0.484375 -1.957031 0.484375 -2.90625 C 0.484375 -3.851562 0.660156 -4.585938 1.015625 -5.109375 C 1.367188 -5.628906 1.863281 -5.890625 2.5 -5.890625 C 3.132812 -5.890625 3.628906 -5.628906 3.984375 -5.109375 C 4.335938 -4.585938 4.515625 -3.851562 4.515625 -2.90625 C 4.515625 -1.957031 4.335938 -1.222656 3.984375 -0.703125 C 3.640625 -0.179688 3.144531 0.078125 2.5 0.078125 Z M 2.5 -0.546875 C 2.925781 -0.546875 3.253906 -0.75 3.484375 -1.15625 C 3.722656 -1.5625 3.84375 -2.144531 3.84375 -2.90625 C 3.84375 -3.664062 3.722656 -4.25 3.484375 -4.65625 C 3.242188 -5.070312 2.914062 -5.28125 2.5 -5.28125 C 2.082031 -5.28125 1.753906 -5.070312 1.515625 -4.65625 C 1.273438 -4.25 1.15625 -3.664062 1.15625 -2.90625 C 1.15625 -2.144531 1.269531 -1.5625 1.5 -1.15625 C 1.738281 -0.75 2.070312 -0.546875 2.5 -0.546875 Z M 2.5 -0.546875 "/></g></g></g><g fill="#000000" fill-opacity="1"><g transform="translate(16.878885, 109.357443)"><g><path d="M 0.609375 0 L 0.609375 -0.515625 L 2.515625 -2.609375 C 2.742188 -2.859375 2.929688 -3.070312 3.078125 -3.25 C 3.222656 -3.4375 3.332031 -3.609375 3.40625 -3.765625 C 3.476562 -3.929688 3.515625 -4.101562 3.515625 -4.28125 C 3.515625 -4.59375 3.40625 -4.835938 3.1875 -5.015625 C 2.976562 -5.191406 2.710938 -5.28125 2.390625 -5.28125 C 2.054688 -5.28125 1.789062 -5.175781 1.59375 -4.96875 C 1.394531 -4.769531 1.296875 -4.507812 1.296875 -4.1875 L 0.625 -4.1875 C 0.625 -4.519531 0.703125 -4.816406 0.859375 -5.078125 C 1.015625 -5.335938 1.226562 -5.535156 1.5 -5.671875 C 1.769531 -5.816406 2.078125 -5.890625 2.421875 -5.890625 C 2.765625 -5.890625 3.066406 -5.816406 3.328125 -5.671875 C 3.585938 -5.535156 3.789062 -5.34375 3.9375 -5.09375 C 4.09375 -4.851562 4.171875 -4.582031 4.171875 -4.28125 C 4.171875 -4.070312 4.128906 -3.863281 4.046875 -3.65625 C 3.972656 -3.457031 3.84375 -3.234375 3.65625 -2.984375 C 3.46875 -2.734375 3.207031 -2.425781 2.875 -2.0625 L 1.5625 -0.671875 L 1.5625 -0.625 L 4.265625 -0.625 L 4.265625 0 Z M 0.609375 0 "/></g></g></g><g fill="#000000" fill-opacity="1"><g transform="translate(21.709978, 109.357443)"><g><path d="M 2.5 0.078125 C 1.851562 0.078125 1.351562 -0.179688 1 -0.703125 C 0.65625 -1.222656 0.484375 -1.957031 0.484375 -2.90625 C 0.484375 -3.851562 0.660156 -4.585938 1.015625 -5.109375 C 1.367188 -5.628906 1.863281 -5.890625 2.5 -5.890625 C 3.132812 -5.890625 3.628906 -5.628906 3.984375 -5.109375 C 4.335938 -4.585938 4.515625 -3.851562 4.515625 -2.90625 C 4.515625 -1.957031 4.335938 -1.222656 3.984375 -0.703125 C 3.640625 -0.179688 3.144531 0.078125 2.5 0.078125 Z M 2.5 -0.546875 C 2.925781 -0.546875 3.253906 -0.75 3.484375 -1.15625 C 3.722656 -1.5625 3.84375 -2.144531 3.84375 -2.90625 C 3.84375 -3.664062 3.722656 -4.25 3.484375 -4.65625 C 3.242188 -5.070312 2.914062 -5.28125 2.5 -5.28125 C 2.082031 -5.28125 1.753906 -5.070312 1.515625 -4.65625 C 1.273438 -4.25 1.15625 -3.664062 1.15625 -2.90625 C 1.15625 -2.144531 1.269531 -1.5625 1.5 -1.15625 C 1.738281 -0.75 2.070312 -0.546875 2.5 -0.546875 Z M 2.5 -0.546875 "/></g></g></g><g fill="#000000" fill-opacity="1"><g transform="translate(26.699841, 109.357443)"><g><path d="M 2.5 0.078125 C 1.851562 0.078125 1.351562 -0.179688 1 -0.703125 C 0.65625 -1.222656 0.484375 -1.957031 0.484375 -2.90625 C 0.484375 -3.851562 0.660156 -4.585938 1.015625 -5.109375 C 1.367188 -5.628906 1.863281 -5.890625 2.5 -5.890625 C 3.132812 -5.890625 3.628906 -5.628906 3.984375 -5.109375 C 4.335938 -4.585938 4.515625 -3.851562 4.515625 -2.90625 C 4.515625 -1.957031 4.335938 -1.222656 3.984375 -0.703125 C 3.640625 -0.179688 3.144531 0.078125 2.5 0.078125 Z M 2.5 -0.546875 C 2.925781 -0.546875 3.253906 -0.75 3.484375 -1.15625 C 3.722656 -1.5625 3.84375 -2.144531 3.84375 -2.90625 C 3.84375 -3.664062 3.722656 -4.25 3.484375 -4.65625 C 3.242188 -5.070312 2.914062 -5.28125 2.5 -5.28125 C 2.082031 -5.28125 1.753906 -5.070312 1.515625 -4.65625 C 1.273438 -4.25 1.15625 -3.664062 1.15625 -2.90625 C 1.15625 -2.144531 1.269531 -1.5625 1.5 -1.15625 C 1.738281 -0.75 2.070312 -0.546875 2.5 -0.546875 Z M 2.5 -0.546875 "/></g></g></g><g fill="#000000" fill-opacity="1"><g transform="translate(16.935911, 60.820491)"><g><path d="M 0.609375 0 L 0.609375 -0.515625 L 2.515625 -2.609375 C 2.742188 -2.859375 2.929688 -3.070312 3.078125 -3.25 C 3.222656 -3.4375 3.332031 -3.609375 3.40625 -3.765625 C 3.476562 -3.929688 3.515625 -4.101562 3.515625 -4.28125 C 3.515625 -4.59375 3.40625 -4.835938 3.1875 -5.015625 C 2.976562 -5.191406 2.710938 -5.28125 2.390625 -5.28125 C 2.054688 -5.28125 1.789062 -5.175781 1.59375 -4.96875 C 1.394531 -4.769531 1.296875 -4.507812 1.296875 -4.1875 L 0.625 -4.1875 C 0.625 -4.519531 0.703125 -4.816406 0.859375 -5.078125 C 1.015625 -5.335938 1.226562 -5.535156 1.5 -5.671875 C 1.769531 -5.816406 2.078125 -5.890625 2.421875 -5.890625 C 2.765625 -5.890625 3.066406 -5.816406 3.328125 -5.671875 C 3.585938 -5.535156 3.789062 -5.34375 3.9375 -5.09375 C 4.09375 -4.851562 4.171875 -4.582031 4.171875 -4.28125 C 4.171875 -4.070312 4.128906 -3.863281 4.046875 -3.65625 C 3.972656 -3.457031 3.84375 -3.234375 3.65625 -2.984375 C 3.46875 -2.734375 3.207031 -2.425781 2.875 -2.0625 L 1.5625 -0.671875 L 1.5625 -0.625 L 4.265625 -0.625 L 4.265625 0 Z M 0.609375 0 "/></g></g></g><g fill="#000000" fill-opacity="1"><g transform="translate(21.767004, 60.820491)"><g><path d="M 2.421875 0.078125 C 2.085938 0.078125 1.785156 0.015625 1.515625 -0.109375 C 1.253906 -0.242188 1.039062 -0.425781 0.875 -0.65625 C 0.71875 -0.894531 0.628906 -1.160156 0.609375 -1.453125 L 1.296875 -1.453125 C 1.316406 -1.191406 1.429688 -0.972656 1.640625 -0.796875 C 1.859375 -0.628906 2.117188 -0.546875 2.421875 -0.546875 C 2.660156 -0.546875 2.875 -0.597656 3.0625 -0.703125 C 3.25 -0.816406 3.394531 -0.972656 3.5 -1.171875 C 3.601562 -1.367188 3.65625 -1.59375 3.65625 -1.84375 C 3.65625 -2.09375 3.597656 -2.316406 3.484375 -2.515625 C 3.378906 -2.722656 3.226562 -2.882812 3.03125 -3 C 2.84375 -3.113281 2.625 -3.171875 2.375 -3.171875 C 2.195312 -3.171875 2.015625 -3.140625 1.828125 -3.078125 C 1.640625 -3.023438 1.484375 -2.957031 1.359375 -2.875 L 0.703125 -2.953125 L 1.0625 -5.8125 L 4.078125 -5.8125 L 4.078125 -5.1875 L 1.640625 -5.1875 L 1.4375 -3.484375 L 1.484375 -3.484375 C 1.597656 -3.578125 1.742188 -3.65625 1.921875 -3.71875 C 2.109375 -3.78125 2.296875 -3.8125 2.484375 -3.8125 C 2.835938 -3.8125 3.15625 -3.722656 3.4375 -3.546875 C 3.71875 -3.378906 3.9375 -3.148438 4.09375 -2.859375 C 4.257812 -2.566406 4.34375 -2.234375 4.34375 -1.859375 C 4.34375 -1.484375 4.257812 -1.148438 4.09375 -0.859375 C 3.925781 -0.566406 3.695312 -0.335938 3.40625 -0.171875 C 3.113281 -0.00390625 2.785156 0.078125 2.421875 0.078125 Z M 2.421875 0.078125 "/></g></g></g><g fill="#000000" fill-opacity="1"><g transform="translate(26.620776, 60.820491)"><g><path d="M 2.5 0.078125 C 1.851562 0.078125 1.351562 -0.179688 1 -0.703125 C 0.65625 -1.222656 0.484375 -1.957031 0.484375 -2.90625 C 0.484375 -3.851562 0.660156 -4.585938 1.015625 -5.109375 C 1.367188 -5.628906 1.863281 -5.890625 2.5 -5.890625 C 3.132812 -5.890625 3.628906 -5.628906 3.984375 -5.109375 C 4.335938 -4.585938 4.515625 -3.851562 4.515625 -2.90625 C 4.515625 -1.957031 4.335938 -1.222656 3.984375 -0.703125 C 3.640625 -0.179688 3.144531 0.078125 2.5 0.078125 Z M 2.5 -0.546875 C 2.925781 -0.546875 3.253906 -0.75 3.484375 -1.15625 C 3.722656 -1.5625 3.84375 -2.144531 3.84375 -2.90625 C 3.84375 -3.664062 3.722656 -4.25 3.484375 -4.65625 C 3.242188 -5.070312 2.914062 -5.28125 2.5 -5.28125 C 2.082031 -5.28125 1.753906 -5.070312 1.515625 -4.65625 C 1.273438 -4.25 1.15625 -3.664062 1.15625 -2.90625 C 1.15625 -2.144531 1.269531 -1.5625 1.5 -1.15625 C 1.738281 -0.75 2.070312 -0.546875 2.5 -0.546875 Z M 2.5 -0.546875 "/></g></g></g><path stroke-linecap="butt" transform="matrix(0.912412, 0, 0, 0.912412, 37.819675, 57.62705)" fill="none" stroke-linejoin="miter" d="M 0.000699023 265.982394 L 447.484067 265.982394 " stroke="#000000" stroke-width="1" stroke-opacity="0.6" stroke-miterlimit="4"/><path stroke-linecap="butt" transform="matrix(0.912412, 0, 0, 0.912412, 37.819675, 57.62705)" fill="none" stroke-linejoin="miter" d="M 0.000699023 212.783754 L 447.484067 212.783754 " stroke="#000000" stroke-width="1" stroke-opacity="0.251" stroke-miterlimit="4"/><path stroke-linecap="butt" transform="matrix(0.912412, 0, 0, 0.912412, 37.819675, 57.62705)" fill="none" stroke-linejoin="miter" d="M 0.000699023 159.589394 L 447.484067 159.589394 " stroke="#000000" stroke-width="1" stroke-opacity="0.251" stroke-miterlimit="4"/><path stroke-linecap="butt" transform="matrix(0.912412, 0, 0, 0.912412, 37.819675, 57.62705)" fill="none" stroke-linejoin="miter" d="M 0.000699023 106.390753 L 447.484067 106.390753 " stroke="#000000" stroke-width="1" stroke-opacity="0.251" stroke-miterlimit="4"/><path stroke-linecap="butt" transform="matrix(0.912412, 0, 0, 0.912412, 37.819675, 57.62705)" fill="none" stroke-linejoin="miter" d="M 0.000699023 53.196394 L 447.484067 53.196394 " stroke="#000000" stroke-width="1" stroke-opacity="0.251" stroke-miterlimit="4"/><path stroke-linecap="butt" transform="matrix(0.912412, 0, 0, 0.912412, 37.819675, 57.62705)" fill="none" stroke-linejoin="miter" d="M 0.000699023 0.00203415 L 447.484067 0.00203415 " stroke="#000000" stroke-width="1" stroke-opacity="0.251" stroke-miterlimit="4"/><path stroke-linecap="round" transform="matrix(0.912412, 0, 0, 0.912412, 37.819675, 57.62705)" fill-opacity="1" fill="#000000" fill-rule="nonzero" stroke-linejoin="miter" d="M 18.645483 235.127525 L 55.93505 218.10533 " stroke="#38b6ff" stroke-width="3" stroke-opacity="1" stroke-miterlimit="4"/><path stroke-linecap="round" transform="matrix(0.912412, 0, 0, 0.912412, 37.819675, 57.62705)" fill-opacity="1" fill="#000000" fill-rule="nonzero" stroke-linejoin="miter" d="M 55.93505 218.10533 L 93.224617 206.40043 " stroke="#38b6ff" stroke-width="3" stroke-opacity="1" stroke-miterlimit="4"/><path stroke-linecap="round" transform="matrix(0.912412, 0, 0, 0.912412, 37.819675, 57.62705)" fill-opacity="1" fill="#000000" fill-rule="nonzero" stroke-linejoin="miter" d="M 93.224617 206.40043 L 130.518465 182.994912 " stroke="#38b6ff" stroke-width="3" stroke-opacity="1" stroke-miterlimit="4"/><path stroke-linecap="round" transform="matrix(0.912412, 0, 0, 0.912412, 37.819675, 57.62705)" fill-opacity="1" fill="#000000" fill-rule="nonzero" stroke-linejoin="miter" d="M 130.518465 182.994912 L 167.808032 161.717168 " stroke="#38b6ff" stroke-width="3" stroke-opacity="1" stroke-miterlimit="4"/><path stroke-linecap="round" transform="matrix(0.912412, 0, 0, 0.912412, 37.819675, 57.62705)" fill-opacity="1" fill="#000000" fill-rule="nonzero" stroke-linejoin="miter" d="M 167.808032 161.717168 L 205.097599 138.31165 " stroke="#38b6ff" stroke-width="3" stroke-opacity="1" stroke-miterlimit="4"/><path stroke-linecap="round" transform="matrix(0.912412, 0, 0, 0.912412, 37.819675, 57.62705)" fill-opacity="1" fill="#000000" fill-rule="nonzero" stroke-linejoin="miter" d="M 205.097599 138.31165 L 242.387167 123.41723 " stroke="#38b6ff" stroke-width="3" stroke-opacity="1" stroke-miterlimit="4"/><path stroke-linecap="round" transform="matrix(0.912412, 0, 0, 0.912412, 37.819675, 57.62705)" fill-opacity="1" fill="#000000" fill-rule="nonzero" stroke-linejoin="miter" d="M 242.387167 123.41723 L 279.676734 111.71233 " stroke="#38b6ff" stroke-width="3" stroke-opacity="1" stroke-miterlimit="4"/><path stroke-linecap="round" transform="matrix(0.912412, 0, 0, 0.912412, 37.819675, 57.62705)" fill-opacity="1" fill="#000000" fill-rule="nonzero" stroke-linejoin="miter" d="M 279.676734 111.71233 L 316.970582 100.00743 " stroke="#38b6ff" stroke-width="3" stroke-opacity="1" stroke-miterlimit="4"/><path stroke-linecap="round" transform="matrix(0.912412, 0, 0, 0.912412, 37.819675, 57.62705)" fill-opacity="1" fill="#000000" fill-rule="nonzero" stroke-linejoin="miter" d="M 316.970582 100.00743 L 354.260149 42.557522 " stroke="#38b6ff" stroke-width="3" stroke-opacity="1" stroke-miterlimit="4"/><path stroke-linecap="round" transform="matrix(0.912412, 0, 0, 0.912412, 37.819675, 57.62705)" fill-opacity="1" fill="#000000" fill-rule="nonzero" stroke-linejoin="miter" d="M 354.260149 42.557522 L 391.549716 17.024229 " stroke="#38b6ff" stroke-width="3" stroke-opacity="1" stroke-miterlimit="4"/><path stroke-linecap="round" transform="matrix(0.912412, 0, 0, 0.912412, 37.819675, 57.62705)" fill-opacity="1" fill="#000000" fill-rule="nonzero" stroke-linejoin="miter" d="M 391.549716 17.024229 L 428.839283 4.257583 " stroke="#38b6ff" stroke-width="3" stroke-opacity="1" stroke-miterlimit="4"/><path fill="#38b6ff" d="M 58.480469 272.160156 C 58.480469 271.675781 58.390625 271.210938 58.203125 270.765625 C 58.019531 270.316406 57.753906 269.921875 57.414062 269.578125 C 57.070312 269.238281 56.675781 268.972656 56.226562 268.789062 C 55.78125 268.601562 55.316406 268.511719 54.832031 268.511719 C 54.347656 268.511719 53.882812 268.601562 53.433594 268.789062 C 52.988281 268.972656 52.59375 269.238281 52.25 269.578125 C 51.910156 269.921875 51.644531 270.316406 51.460938 270.765625 C 51.273438 271.210938 51.183594 271.675781 51.183594 272.160156 C 51.183594 272.644531 51.273438 273.109375 51.460938 273.558594 C 51.644531 274.003906 51.910156 274.398438 52.25 274.742188 C 52.59375 275.082031 52.988281 275.347656 53.433594 275.53125 C 53.882812 275.71875 54.347656 275.808594 54.832031 275.808594 C 55.316406 275.808594 55.78125 275.71875 56.226562 275.53125 C 56.675781 275.347656 57.070312 275.082031 57.414062 274.742188 C 57.753906 274.398438 58.019531 274.003906 58.203125 273.558594 C 58.390625 273.109375 58.480469 272.644531 58.480469 272.160156 Z M 58.480469 272.160156 " fill-opacity="1" fill-rule="nonzero"/><path fill="#38b6ff" d="M 92.503906 256.628906 C 92.503906 256.144531 92.414062 255.679688 92.226562 255.230469 C 92.042969 254.785156 91.777344 254.390625 91.4375 254.046875 C 91.09375 253.707031 90.699219 253.441406 90.253906 253.257812 C 89.804688 253.070312 89.339844 252.980469 88.855469 252.980469 C 88.371094 252.980469 87.90625 253.070312 87.460938 253.257812 C 87.011719 253.441406 86.617188 253.707031 86.277344 254.046875 C 85.933594 254.390625 85.667969 254.785156 85.484375 255.230469 C 85.300781 255.679688 85.207031 256.144531 85.207031 256.628906 C 85.207031 257.113281 85.300781 257.578125 85.484375 258.023438 C 85.667969 258.472656 85.933594 258.867188 86.277344 259.210938 C 86.617188 259.550781 87.011719 259.816406 87.460938 260 C 87.90625 260.1875 88.371094 260.277344 88.855469 260.277344 C 89.339844 260.277344 89.804688 260.1875 90.253906 260 C 90.699219 259.816406 91.09375 259.550781 91.4375 259.210938 C 91.777344 258.867188 92.042969 258.472656 92.226562 258.023438 C 92.414062 257.578125 92.503906 257.113281 92.503906 256.628906 Z M 92.503906 256.628906 " fill-opacity="1" fill-rule="nonzero"/><path fill="#38b6ff" d="M 126.53125 245.949219 C 126.53125 245.464844 126.4375 245 126.253906 244.554688 C 126.066406 244.105469 125.804688 243.710938 125.460938 243.371094 C 125.117188 243.027344 124.722656 242.765625 124.277344 242.578125 C 123.828125 242.394531 123.363281 242.300781 122.878906 242.300781 C 122.394531 242.300781 121.929688 242.394531 121.484375 242.578125 C 121.035156 242.765625 120.640625 243.027344 120.300781 243.371094 C 119.957031 243.710938 119.695312 244.105469 119.507812 244.554688 C 119.324219 245 119.230469 245.464844 119.230469 245.949219 C 119.230469 246.433594 119.324219 246.898438 119.507812 247.347656 C 119.695312 247.792969 119.957031 248.1875 120.300781 248.53125 C 120.640625 248.875 121.035156 249.136719 121.484375 249.320312 C 121.929688 249.507812 122.394531 249.601562 122.878906 249.601562 C 123.363281 249.601562 123.828125 249.507812 124.277344 249.320312 C 124.722656 249.136719 125.117188 248.875 125.460938 248.53125 C 125.804688 248.1875 126.066406 247.792969 126.253906 247.347656 C 126.4375 246.898438 126.53125 246.433594 126.53125 245.949219 Z M 126.53125 245.949219 " fill-opacity="1" fill-rule="nonzero"/><path fill="#38b6ff" d="M 160.554688 224.59375 C 160.554688 224.109375 160.460938 223.644531 160.277344 223.199219 C 160.089844 222.75 159.828125 222.355469 159.484375 222.011719 C 159.144531 221.671875 158.75 221.40625 158.300781 221.222656 C 157.855469 221.039062 157.386719 220.945312 156.90625 220.945312 C 156.421875 220.945312 155.957031 221.039062 155.507812 221.222656 C 155.0625 221.40625 154.667969 221.671875 154.324219 222.011719 C 153.980469 222.355469 153.71875 222.75 153.53125 223.199219 C 153.347656 223.644531 153.253906 224.109375 153.253906 224.59375 C 153.253906 225.078125 153.347656 225.542969 153.53125 225.992188 C 153.71875 226.4375 153.980469 226.832031 154.324219 227.175781 C 154.667969 227.515625 155.0625 227.78125 155.507812 227.964844 C 155.957031 228.152344 156.421875 228.242188 156.90625 228.242188 C 157.386719 228.242188 157.855469 228.152344 158.300781 227.964844 C 158.75 227.78125 159.144531 227.515625 159.484375 227.175781 C 159.828125 226.832031 160.089844 226.4375 160.277344 225.992188 C 160.460938 225.542969 160.554688 225.078125 160.554688 224.59375 Z M 160.554688 224.59375 " fill-opacity="1" fill-rule="nonzero"/><path fill="#38b6ff" d="M 194.578125 205.179688 C 194.578125 204.695312 194.484375 204.230469 194.300781 203.78125 C 194.117188 203.335938 193.851562 202.941406 193.507812 202.597656 C 193.167969 202.257812 192.773438 201.992188 192.324219 201.808594 C 191.878906 201.621094 191.414062 201.53125 190.929688 201.53125 C 190.445312 201.53125 189.980469 201.621094 189.53125 201.808594 C 189.085938 201.992188 188.691406 202.257812 188.347656 202.597656 C 188.007812 202.941406 187.742188 203.335938 187.558594 203.78125 C 187.371094 204.230469 187.28125 204.695312 187.28125 205.179688 C 187.28125 205.664062 187.371094 206.128906 187.558594 206.574219 C 187.742188 207.023438 188.007812 207.417969 188.347656 207.761719 C 188.691406 208.101562 189.085938 208.367188 189.53125 208.550781 C 189.980469 208.738281 190.445312 208.828125 190.929688 208.828125 C 191.414062 208.828125 191.878906 208.738281 192.324219 208.550781 C 192.773438 208.367188 193.167969 208.101562 193.507812 207.761719 C 193.851562 207.417969 194.117188 207.023438 194.300781 206.574219 C 194.484375 206.128906 194.578125 205.664062 194.578125 205.179688 Z M 194.578125 205.179688 " fill-opacity="1" fill-rule="nonzero"/><path fill="#38b6ff" d="M 228.601562 183.824219 C 228.601562 183.339844 228.511719 182.875 228.324219 182.425781 C 228.140625 181.980469 227.875 181.585938 227.535156 181.242188 C 227.191406 180.898438 226.796875 180.636719 226.351562 180.453125 C 225.902344 180.265625 225.4375 180.171875 224.953125 180.171875 C 224.46875 180.171875 224.003906 180.265625 223.554688 180.453125 C 223.109375 180.636719 222.714844 180.898438 222.371094 181.242188 C 222.03125 181.585938 221.765625 181.980469 221.582031 182.425781 C 221.394531 182.875 221.304688 183.339844 221.304688 183.824219 C 221.304688 184.308594 221.394531 184.773438 221.582031 185.21875 C 221.765625 185.667969 222.03125 186.0625 222.371094 186.402344 C 222.714844 186.746094 223.109375 187.007812 223.554688 187.195312 C 224.003906 187.378906 224.46875 187.472656 224.953125 187.472656 C 225.4375 187.472656 225.902344 187.378906 226.351562 187.195312 C 226.796875 187.007812 227.191406 186.746094 227.535156 186.402344 C 227.875 186.0625 228.140625 185.667969 228.324219 185.21875 C 228.511719 184.773438 228.601562 184.308594 228.601562 183.824219 Z M 228.601562 183.824219 " fill-opacity="1" fill-rule="nonzero"/><path fill="#38b6ff" d="M 262.628906 170.234375 C 262.628906 169.75 262.535156 169.285156 262.347656 168.835938 C 262.164062 168.390625 261.902344 167.996094 261.558594 167.652344 C 261.214844 167.308594 260.820312 167.046875 260.375 166.859375 C 259.925781 166.675781 259.460938 166.582031 258.976562 166.582031 C 258.492188 166.582031 258.027344 166.675781 257.582031 166.859375 C 257.132812 167.046875 256.738281 167.308594 256.398438 167.652344 C 256.054688 167.996094 255.789062 168.390625 255.605469 168.835938 C 255.421875 169.285156 255.328125 169.75 255.328125 170.234375 C 255.328125 170.714844 255.421875 171.183594 255.605469 171.628906 C 255.789062 172.078125 256.054688 172.472656 256.398438 172.8125 C 256.738281 173.15625 257.132812 173.417969 257.582031 173.605469 C 258.027344 173.789062 258.492188 173.882812 258.976562 173.882812 C 259.460938 173.882812 259.925781 173.789062 260.375 173.605469 C 260.820312 173.417969 261.214844 173.15625 261.558594 172.8125 C 261.902344 172.472656 262.164062 172.078125 262.347656 171.628906 C 262.535156 171.183594 262.628906 170.714844 262.628906 170.234375 Z M 262.628906 170.234375 " fill-opacity="1" fill-rule="nonzero"/><path fill="#38b6ff" d="M 296.652344 159.554688 C 296.652344 159.070312 296.558594 158.605469 296.375 158.15625 C 296.1875 157.710938 295.925781 157.316406 295.582031 156.972656 C 295.238281 156.632812 294.84375 156.367188 294.398438 156.183594 C 293.953125 155.996094 293.484375 155.90625 293 155.90625 C 292.519531 155.90625 292.050781 155.996094 291.605469 156.183594 C 291.15625 156.367188 290.761719 156.632812 290.421875 156.972656 C 290.078125 157.316406 289.816406 157.710938 289.628906 158.15625 C 289.445312 158.605469 289.351562 159.070312 289.351562 159.554688 C 289.351562 160.039062 289.445312 160.503906 289.628906 160.953125 C 289.816406 161.398438 290.078125 161.792969 290.421875 162.136719 C 290.761719 162.476562 291.15625 162.742188 291.605469 162.925781 C 292.050781 163.113281 292.519531 163.203125 293 163.203125 C 293.484375 163.203125 293.953125 163.113281 294.398438 162.925781 C 294.84375 162.742188 295.238281 162.476562 295.582031 162.136719 C 295.925781 161.792969 296.1875 161.398438 296.375 160.953125 C 296.558594 160.503906 296.652344 160.039062 296.652344 159.554688 Z M 296.652344 159.554688 " fill-opacity="1" fill-rule="nonzero"/><path fill="#38b6ff" d="M 330.675781 148.875 C 330.675781 148.390625 330.582031 147.925781 330.398438 147.480469 C 330.210938 147.03125 329.949219 146.636719 329.605469 146.296875 C 329.265625 145.953125 328.871094 145.691406 328.421875 145.503906 C 327.976562 145.320312 327.511719 145.226562 327.027344 145.226562 C 326.542969 145.226562 326.078125 145.320312 325.628906 145.503906 C 325.183594 145.691406 324.789062 145.953125 324.445312 146.296875 C 324.101562 146.636719 323.839844 147.03125 323.652344 147.480469 C 323.46875 147.925781 323.375 148.390625 323.375 148.875 C 323.375 149.359375 323.46875 149.824219 323.652344 150.273438 C 323.839844 150.71875 324.101562 151.113281 324.445312 151.457031 C 324.789062 151.800781 325.183594 152.0625 325.628906 152.25 C 326.078125 152.433594 326.542969 152.527344 327.027344 152.527344 C 327.511719 152.527344 327.976562 152.433594 328.421875 152.25 C 328.871094 152.0625 329.265625 151.800781 329.605469 151.457031 C 329.949219 151.113281 330.210938 150.71875 330.398438 150.273438 C 330.582031 149.824219 330.675781 149.359375 330.675781 148.875 Z M 330.675781 148.875 " fill-opacity="1" fill-rule="nonzero"/><path fill="#38b6ff" d="M 364.699219 96.457031 C 364.699219 95.972656 364.605469 95.507812 364.421875 95.058594 C 364.238281 94.613281 363.972656 94.21875 363.632812 93.875 C 363.289062 93.535156 362.894531 93.269531 362.445312 93.085938 C 362 92.898438 361.535156 92.808594 361.050781 92.808594 C 360.566406 92.808594 360.101562 92.898438 359.652344 93.085938 C 359.207031 93.269531 358.8125 93.535156 358.46875 93.875 C 358.128906 94.21875 357.863281 94.613281 357.679688 95.058594 C 357.492188 95.507812 357.402344 95.972656 357.402344 96.457031 C 357.402344 96.941406 357.492188 97.40625 357.679688 97.851562 C 357.863281 98.300781 358.128906 98.695312 358.46875 99.039062 C 358.8125 99.378906 359.207031 99.644531 359.652344 99.828125 C 360.101562 100.011719 360.566406 100.105469 361.050781 100.105469 C 361.535156 100.105469 362 100.011719 362.445312 99.828125 C 362.894531 99.644531 363.289062 99.378906 363.632812 99.039062 C 363.972656 98.695312 364.238281 98.300781 364.421875 97.851562 C 364.605469 97.40625 364.699219 96.941406 364.699219 96.457031 Z M 364.699219 96.457031 " fill-opacity="1" fill-rule="nonzero"/><path fill="#38b6ff" d="M 398.722656 73.160156 C 398.722656 72.675781 398.632812 72.210938 398.445312 71.761719 C 398.261719 71.316406 397.996094 70.921875 397.65625 70.578125 C 397.3125 70.234375 396.917969 69.972656 396.472656 69.785156 C 396.023438 69.601562 395.558594 69.507812 395.074219 69.507812 C 394.589844 69.507812 394.125 69.601562 393.679688 69.785156 C 393.230469 69.972656 392.835938 70.234375 392.492188 70.578125 C 392.152344 70.921875 391.886719 71.316406 391.703125 71.761719 C 391.519531 72.210938 391.425781 72.675781 391.425781 73.160156 C 391.425781 73.644531 391.519531 74.109375 391.703125 74.554688 C 391.886719 75.003906 392.152344 75.398438 392.492188 75.738281 C 392.835938 76.082031 393.230469 76.34375 393.679688 76.53125 C 394.125 76.714844 394.589844 76.808594 395.074219 76.808594 C 395.558594 76.808594 396.023438 76.714844 396.472656 76.53125 C 396.917969 76.34375 397.3125 76.082031 397.65625 75.738281 C 397.996094 75.398438 398.261719 75.003906 398.445312 74.554688 C 398.632812 74.109375 398.722656 73.644531 398.722656 73.160156 Z M 398.722656 73.160156 " fill-opacity="1" fill-rule="nonzero"/><path fill="#38b6ff" d="M 432.75 61.511719 C 432.75 61.027344 432.65625 60.558594 432.472656 60.113281 C 432.285156 59.667969 432.023438 59.273438 431.679688 58.929688 C 431.335938 58.585938 430.941406 58.324219 430.496094 58.136719 C 430.046875 57.953125 429.582031 57.859375 429.097656 57.859375 C 428.613281 57.859375 428.148438 57.953125 427.703125 58.136719 C 427.253906 58.324219 426.859375 58.585938 426.519531 58.929688 C 426.175781 59.273438 425.914062 59.667969 425.726562 60.113281 C 425.542969 60.558594 425.449219 61.027344 425.449219 61.511719 C 425.449219 61.992188 425.542969 62.460938 425.726562 62.90625 C 425.914062 63.355469 426.175781 63.75 426.519531 64.089844 C 426.859375 64.433594 427.253906 64.695312 427.703125 64.882812 C 428.148438 65.066406 428.613281 65.160156 429.097656 65.160156 C 429.582031 65.160156 430.046875 65.066406 430.496094 64.882812 C 430.941406 64.695312 431.335938 64.433594 431.679688 64.089844 C 432.023438 63.75 432.285156 63.355469 432.472656 62.90625 C 432.65625 62.460938 432.75 61.992188 432.75 61.511719 Z M 432.75 61.511719 " fill-opacity="1" fill-rule="nonzero"/><g clip-path="url(#004df3c034)"><g clip-path="url(#e03ff46e38)"><path fill="#ededed" d="M 396.589844 0 L 462.320312 0 L 462.320312 24.457031 L 396.589844 24.457031 Z M 396.589844 0 " fill-opacity="1" fill-rule="nonzero"/></g></g><g clip-path="url(#4a33a84803)"><path fill="#606060" d="M 409.617188 14.671875 C 409.699219 14.753906 409.796875 14.792969 409.910156 14.792969 C 410.023438 14.792969 410.121094 14.753906 410.203125 14.671875 L 414.1875 10.6875 C 414.269531 10.605469 414.3125 10.507812 414.3125 10.394531 C 414.3125 10.277344 414.273438 10.179688 414.191406 10.101562 C 414.109375 10.019531 414.011719 9.980469 413.898438 9.980469 C 413.78125 9.980469 413.683594 10.019531 413.605469 10.101562 L 409.910156 13.796875 L 406.214844 10.101562 C 406.132812 10.027344 406.039062 9.992188 405.925781 9.992188 C 405.816406 9.996094 405.722656 10.035156 405.644531 10.113281 C 405.5625 10.191406 405.523438 10.285156 405.523438 10.398438 C 405.519531 10.507812 405.554688 10.605469 405.632812 10.6875 Z M 409.617188 14.671875 " fill-opacity="1" fill-rule="nonzero"/></g><g fill="#606060" fill-opacity="1"><g transform="translate(418.181935, 15.063991)"><g><path d="M 0.390625 -5.1875 L 0.390625 -5.8125 L 4.75 -5.8125 L 4.75 -5.1875 L 2.921875 -5.1875 L 2.921875 0 L 2.21875 0 L 2.21875 -5.1875 Z M 0.390625 -5.1875 "/></g></g></g><g fill="#606060" fill-opacity="1"><g transform="translate(423.314566, 15.063991)"><g><path d="M 1.28125 -2.625 L 1.28125 0 L 0.609375 0 L 0.609375 -5.8125 L 1.28125 -5.8125 L 1.28125 -3.6875 L 1.34375 -3.6875 C 1.445312 -3.90625 1.597656 -4.082031 1.796875 -4.21875 C 2.003906 -4.351562 2.28125 -4.421875 2.625 -4.421875 C 3.070312 -4.421875 3.429688 -4.285156 3.703125 -4.015625 C 3.972656 -3.742188 4.109375 -3.328125 4.109375 -2.765625 L 4.109375 0 L 3.4375 0 L 3.4375 -2.734375 C 3.4375 -3.078125 3.347656 -3.34375 3.171875 -3.53125 C 2.992188 -3.71875 2.75 -3.8125 2.4375 -3.8125 C 2.101562 -3.8125 1.828125 -3.707031 1.609375 -3.5 C 1.390625 -3.300781 1.28125 -3.007812 1.28125 -2.625 Z M 1.28125 -2.625 "/></g></g></g><g fill="#606060" fill-opacity="1"><g transform="translate(428.038405, 15.063991)"><g><path d="M 0.609375 0 L 0.609375 -4.359375 L 1.28125 -4.359375 L 1.28125 0 Z M 0.953125 -5.09375 C 0.828125 -5.09375 0.71875 -5.132812 0.625 -5.21875 C 0.53125 -5.3125 0.484375 -5.421875 0.484375 -5.546875 C 0.484375 -5.671875 0.53125 -5.773438 0.625 -5.859375 C 0.71875 -5.953125 0.828125 -6 0.953125 -6 C 1.085938 -6 1.203125 -5.953125 1.296875 -5.859375 C 1.390625 -5.773438 1.4375 -5.671875 1.4375 -5.546875 C 1.4375 -5.421875 1.390625 -5.3125 1.296875 -5.21875 C 1.203125 -5.132812 1.085938 -5.09375 0.953125 -5.09375 Z M 0.953125 -5.09375 "/></g></g></g><g fill="#606060" fill-opacity="1"><g transform="translate(429.93475, 15.063991)"><g><path d="M 3.703125 -3.390625 L 3.109375 -3.21875 C 3.046875 -3.363281 2.941406 -3.503906 2.796875 -3.640625 C 2.660156 -3.773438 2.445312 -3.84375 2.15625 -3.84375 C 1.894531 -3.84375 1.675781 -3.78125 1.5 -3.65625 C 1.320312 -3.53125 1.234375 -3.375 1.234375 -3.1875 C 1.234375 -3.019531 1.289062 -2.890625 1.40625 -2.796875 C 1.53125 -2.703125 1.722656 -2.625 1.984375 -2.5625 L 2.625 -2.390625 C 3.394531 -2.203125 3.78125 -1.8125 3.78125 -1.21875 C 3.78125 -0.96875 3.707031 -0.742188 3.5625 -0.546875 C 3.425781 -0.347656 3.226562 -0.191406 2.96875 -0.078125 C 2.71875 0.0351562 2.421875 0.09375 2.078125 0.09375 C 1.628906 0.09375 1.257812 0 0.96875 -0.1875 C 0.675781 -0.382812 0.492188 -0.671875 0.421875 -1.046875 L 1.0625 -1.203125 C 1.175781 -0.734375 1.507812 -0.5 2.0625 -0.5 C 2.375 -0.5 2.625 -0.566406 2.8125 -0.703125 C 3 -0.835938 3.09375 -1 3.09375 -1.1875 C 3.09375 -1.488281 2.875 -1.691406 2.4375 -1.796875 L 1.71875 -1.96875 C 1.3125 -2.0625 1.015625 -2.207031 0.828125 -2.40625 C 0.648438 -2.601562 0.5625 -2.851562 0.5625 -3.15625 C 0.5625 -3.40625 0.628906 -3.625 0.765625 -3.8125 C 0.898438 -4 1.085938 -4.144531 1.328125 -4.25 C 1.578125 -4.363281 1.851562 -4.421875 2.15625 -4.421875 C 2.59375 -4.421875 2.929688 -4.328125 3.171875 -4.140625 C 3.421875 -3.953125 3.597656 -3.703125 3.703125 -3.390625 Z M 3.703125 -3.390625 "/></g></g></g><g fill="#606060" fill-opacity="1"><g transform="translate(434.113531, 15.063991)"><g/></g></g><g fill="#606060" fill-opacity="1"><g transform="translate(436.361893, 15.063991)"><g><path d="M 1.015625 1.6875 C 0.910156 1.6875 0.8125 1.675781 0.71875 1.65625 C 0.625 1.644531 0.5625 1.628906 0.53125 1.609375 L 0.703125 1.015625 C 0.953125 1.078125 1.15625 1.078125 1.3125 1.015625 C 1.476562 0.953125 1.617188 0.757812 1.734375 0.4375 L 1.890625 0.015625 L 0.265625 -4.359375 L 1 -4.359375 L 2.203125 -0.890625 L 2.25 -0.890625 L 3.453125 -4.359375 L 4.1875 -4.359375 L 2.3125 0.703125 C 2.0625 1.359375 1.628906 1.6875 1.015625 1.6875 Z M 1.015625 1.6875 "/></g></g></g><g fill="#606060" fill-opacity="1"><g transform="translate(440.813208, 15.063991)"><g><path d="M 2.4375 0.09375 C 2.019531 0.09375 1.660156 0 1.359375 -0.1875 C 1.054688 -0.375 0.820312 -0.632812 0.65625 -0.96875 C 0.488281 -1.3125 0.40625 -1.703125 0.40625 -2.140625 C 0.40625 -2.585938 0.488281 -2.984375 0.65625 -3.328125 C 0.820312 -3.671875 1.050781 -3.9375 1.34375 -4.125 C 1.632812 -4.320312 1.976562 -4.421875 2.375 -4.421875 C 2.601562 -4.421875 2.828125 -4.378906 3.046875 -4.296875 C 3.265625 -4.222656 3.460938 -4.101562 3.640625 -3.9375 C 3.828125 -3.769531 3.972656 -3.546875 4.078125 -3.265625 C 4.191406 -2.984375 4.25 -2.640625 4.25 -2.234375 L 4.25 -1.953125 L 1.078125 -1.953125 C 1.097656 -1.484375 1.234375 -1.125 1.484375 -0.875 C 1.734375 -0.632812 2.050781 -0.515625 2.4375 -0.515625 C 2.707031 -0.515625 2.9375 -0.570312 3.125 -0.6875 C 3.3125 -0.800781 3.445312 -0.96875 3.53125 -1.1875 L 4.1875 -1.015625 C 4.082031 -0.679688 3.875 -0.410156 3.5625 -0.203125 C 3.257812 -0.00390625 2.882812 0.09375 2.4375 0.09375 Z M 1.078125 -2.53125 L 3.5625 -2.53125 C 3.5625 -2.90625 3.453125 -3.210938 3.234375 -3.453125 C 3.023438 -3.691406 2.738281 -3.8125 2.375 -3.8125 C 2.113281 -3.8125 1.890625 -3.75 1.703125 -3.625 C 1.515625 -3.507812 1.367188 -3.351562 1.265625 -3.15625 C 1.160156 -2.96875 1.097656 -2.757812 1.078125 -2.53125 Z M 1.078125 -2.53125 "/></g></g></g><g fill="#606060" fill-opacity="1"><g transform="translate(445.468919, 15.063991)"><g><path d="M 1.890625 0.109375 C 1.617188 0.109375 1.367188 0.0546875 1.140625 -0.046875 C 0.921875 -0.160156 0.742188 -0.316406 0.609375 -0.515625 C 0.472656 -0.710938 0.40625 -0.953125 0.40625 -1.234375 C 0.40625 -1.484375 0.453125 -1.6875 0.546875 -1.84375 C 0.648438 -2 0.785156 -2.117188 0.953125 -2.203125 C 1.117188 -2.296875 1.300781 -2.363281 1.5 -2.40625 C 1.695312 -2.457031 1.898438 -2.492188 2.109375 -2.515625 C 2.367188 -2.554688 2.582031 -2.582031 2.75 -2.59375 C 2.914062 -2.613281 3.035156 -2.644531 3.109375 -2.6875 C 3.191406 -2.738281 3.234375 -2.816406 3.234375 -2.921875 L 3.234375 -2.9375 C 3.234375 -3.21875 3.15625 -3.4375 3 -3.59375 C 2.84375 -3.75 2.613281 -3.828125 2.3125 -3.828125 C 1.988281 -3.828125 1.734375 -3.753906 1.546875 -3.609375 C 1.367188 -3.472656 1.242188 -3.328125 1.171875 -3.171875 L 0.53125 -3.390625 C 0.644531 -3.660156 0.796875 -3.867188 0.984375 -4.015625 C 1.179688 -4.160156 1.390625 -4.265625 1.609375 -4.328125 C 1.835938 -4.390625 2.0625 -4.421875 2.28125 -4.421875 C 2.425781 -4.421875 2.585938 -4.40625 2.765625 -4.375 C 2.953125 -4.34375 3.128906 -4.273438 3.296875 -4.171875 C 3.472656 -4.066406 3.613281 -3.910156 3.71875 -3.703125 C 3.832031 -3.492188 3.890625 -3.21875 3.890625 -2.875 L 3.890625 0 L 3.234375 0 L 3.234375 -0.59375 L 3.1875 -0.59375 C 3.144531 -0.5 3.070312 -0.394531 2.96875 -0.28125 C 2.863281 -0.175781 2.722656 -0.0820312 2.546875 0 C 2.367188 0.0703125 2.148438 0.109375 1.890625 0.109375 Z M 2 -0.5 C 2.257812 -0.5 2.484375 -0.550781 2.671875 -0.65625 C 2.859375 -0.757812 3 -0.894531 3.09375 -1.0625 C 3.1875 -1.226562 3.234375 -1.398438 3.234375 -1.578125 L 3.234375 -2.1875 C 3.203125 -2.15625 3.132812 -2.125 3.03125 -2.09375 C 2.9375 -2.070312 2.828125 -2.050781 2.703125 -2.03125 C 2.585938 -2.007812 2.46875 -1.988281 2.34375 -1.96875 C 2.226562 -1.957031 2.132812 -1.945312 2.0625 -1.9375 C 1.894531 -1.914062 1.734375 -1.878906 1.578125 -1.828125 C 1.429688 -1.785156 1.3125 -1.710938 1.21875 -1.609375 C 1.125 -1.503906 1.078125 -1.367188 1.078125 -1.203125 C 1.078125 -0.972656 1.160156 -0.796875 1.328125 -0.671875 C 1.503906 -0.554688 1.726562 -0.5 2 -0.5 Z M 2 -0.5 "/></g></g></g><g fill="#606060" fill-opacity="1"><g transform="translate(449.977008, 15.063991)"><g><path d="M 0.609375 0 L 0.609375 -4.359375 L 1.265625 -4.359375 L 1.265625 -3.703125 L 1.3125 -3.703125 C 1.382812 -3.921875 1.523438 -4.097656 1.734375 -4.234375 C 1.941406 -4.367188 2.175781 -4.4375 2.4375 -4.4375 C 2.5625 -4.4375 2.664062 -4.421875 2.75 -4.390625 C 2.84375 -4.359375 2.925781 -4.316406 3 -4.265625 L 2.765625 -3.703125 C 2.722656 -3.722656 2.671875 -3.738281 2.609375 -3.75 C 2.546875 -3.769531 2.472656 -3.78125 2.390625 -3.78125 C 2.066406 -3.78125 1.800781 -3.679688 1.59375 -3.484375 C 1.382812 -3.296875 1.28125 -3.054688 1.28125 -2.765625 L 1.28125 0 Z M 0.609375 0 "/></g></g></g></svg>